<svg width="32" height="32" viewBox="0 0 32 32" fill="none" xmlns="http://www.w3.org/2000/svg">
<path d="M16 0.200195C7.17789 0.200195 0 7.15377 0 15.7002C0 24.2466 7.17789 31.2002 16 31.2002C24.8221 31.2002 32 24.2466 32 15.7002C32 7.15377 24.8221 0.200195 16 0.200195ZM16 2.58481C23.4916 2.58481 29.5385 8.44272 29.5385 15.7002C29.5385 22.2969 24.5355 27.7211 18 28.6572V19.4914H21.8221L22.4231 15.7328H18V13.6742C18 12.1122 18.5246 10.726 20.0337 10.726H22.4567V7.44253C22.031 7.38781 21.1313 7.26555 19.4279 7.26555C15.8735 7.26555 13.7885 9.08516 13.7885 13.2271V15.7281H10.1346V19.4914H13.7933V28.6246C7.35938 27.6044 2.46154 22.227 2.46154 15.7002C2.46154 8.44272 8.50841 2.58481 16 2.58481Z" fill="white"/>
</svg>
