<svg width="212" height="44" viewBox="0 0 212 44" fill="none" xmlns="http://www.w3.org/2000/svg">
<rect width="212" height="44" rx="22" fill="#F09C78"/>
<path d="M41.4883 17.3516H40.5508C40.5508 17.1016 40.5352 16.7305 40.5039 16.2383C40.4805 15.8945 40.4414 15.6016 40.3867 15.3594C40.1914 15.125 39.9805 14.9336 39.7539 14.7852C39.2461 14.4414 38.6602 14.1719 37.9961 13.9766C37.332 13.7812 36.582 13.6836 35.7461 13.6836C33.793 13.6836 32.2266 14.2891 31.0469 15.5C29.875 16.7109 29.2891 18.375 29.2891 20.4922C29.2891 22.8047 29.9062 24.6445 31.1406 26.0117C32.3828 27.3711 33.9023 28.0508 35.6992 28.0508C36.2227 28.0508 36.7305 27.9961 37.2227 27.8867C37.7227 27.7773 38.2109 27.6172 38.6875 27.4062C38.7109 27.1953 38.7305 26.7891 38.7461 26.1875C38.7617 25.5859 38.7695 25.2227 38.7695 25.0977C38.7695 24.3477 38.7383 23.9023 38.6758 23.7617C38.6289 23.668 38.5234 23.6016 38.3594 23.5625C38.0859 23.4844 37.3438 23.4102 36.1328 23.3398V22.3906L39.6367 22.4375L43.1641 22.3906V23.1641C42.7109 23.2578 42.4141 23.3867 42.2734 23.5508C42.2031 23.6289 42.1602 23.8438 42.1445 24.1953C42.1055 25.0938 42.0859 25.7383 42.0859 26.1289C42.0859 26.7227 42.1211 27.332 42.1914 27.957C40.7383 28.4883 39.4688 28.8633 38.3828 29.082C37.3047 29.3008 36.2266 29.4102 35.1484 29.4102C33.3906 29.4102 31.8359 29.1133 30.4844 28.5195C29.5391 28.0977 28.7305 27.5547 28.0586 26.8906C27.3867 26.2266 26.875 25.5117 26.5234 24.7461C25.9688 23.5586 25.6914 22.2383 25.6914 20.7852C25.6914 19.5586 25.8711 18.4883 26.2305 17.5742C26.5977 16.6602 27.1055 15.8633 27.7539 15.1836C28.4023 14.4961 29.1367 13.9414 29.957 13.5195C30.7852 13.0898 31.6484 12.7852 32.5469 12.6055C33.4531 12.418 34.4453 12.3242 35.5234 12.3242C36.8516 12.3242 38.0859 12.4453 39.2266 12.6875C40.375 12.9297 41.2695 13.1953 41.9102 13.4844L42.0039 13.707C41.8164 14.3945 41.6445 15.6094 41.4883 17.3516ZM55.1875 27.1953L54.6719 28.3438C54.0312 28.7344 53.3711 29.0234 52.6914 29.2109C52.1836 29.3438 51.6055 29.4102 50.957 29.4102C50.1836 29.4102 49.5 29.3203 48.9062 29.1406C48.3203 28.9609 47.8164 28.7148 47.3945 28.4023C46.9805 28.0898 46.6133 27.707 46.293 27.2539C45.9805 26.8008 45.7539 26.2773 45.6133 25.6836C45.4727 25.0898 45.4023 24.4414 45.4023 23.7383C45.4023 22.7148 45.5391 21.8008 45.8125 20.9961C46 20.4336 46.2188 20.0273 46.4688 19.7773C46.625 19.6211 47.0312 19.3281 47.6875 18.8984C48.3438 18.4688 48.8203 18.1875 49.1172 18.0547C49.6641 17.8125 50.3086 17.6914 51.0508 17.6914C52.0977 17.6914 52.957 17.9102 53.6289 18.3477C54.3008 18.7852 54.7734 19.3438 55.0469 20.0234C55.3281 20.7031 55.4688 21.5273 55.4688 22.4961C55.4688 22.7148 55.4609 22.9258 55.4453 23.1289C55.25 23.1914 54.9531 23.2617 54.5547 23.3398C54.0234 23.4414 53.6641 23.4961 53.4766 23.5039C52.8906 23.5508 52.1172 23.5781 51.1562 23.5859C50.1953 23.5938 49.6641 23.6016 49.5625 23.6094C49.4609 23.6172 49.3477 23.6211 49.2227 23.6211H48.4492C48.5117 24.8555 48.8945 25.832 49.5977 26.5508C50.3008 27.2617 51.168 27.6172 52.1992 27.6172C52.6445 27.6172 53.0547 27.5703 53.4297 27.4766C53.8047 27.375 54.2969 27.1719 54.9062 26.8672L55.1875 27.1953ZM52.3984 22.3438C52.4297 21.1016 52.2617 20.2305 51.8945 19.7305C51.5195 19.2383 51.0352 18.9922 50.4414 18.9922C49.832 18.9922 49.3281 19.25 48.9297 19.7656C48.5234 20.2891 48.3359 21.1484 48.3672 22.3438C48.8281 22.4141 49.5977 22.4492 50.6758 22.4492C51.3633 22.4492 51.9375 22.4141 52.3984 22.3438ZM56.8516 20.082V19.5547L57.9062 18.8867C58.0781 18.7773 58.2422 18.6602 58.3984 18.5352V16.9648C58.3984 16.4023 58.3672 15.707 58.3047 14.8789C59.0625 14.6289 59.5547 14.4609 59.7812 14.375C59.8203 14.3594 60.3164 14.1289 61.2695 13.6836L61.5742 13.918L61.457 15.1367L61.375 16.4844L61.2695 18.5352H61.6562C62.6953 18.5352 63.4805 18.4961 64.0117 18.418L63.8125 20C63.7188 20.0156 63.6328 20.0234 63.5547 20.0234L62.4062 20H61.2695V23.9141C61.2695 25.1172 61.2812 25.8281 61.3047 26.0469C61.3359 26.4141 61.4648 26.7031 61.6914 26.9141C61.9258 27.1172 62.2617 27.2188 62.6992 27.2188C62.9648 27.2266 63.1758 27.2227 63.332 27.207C63.4961 27.1836 63.7031 27.1445 63.9531 27.0898L64.1406 27.5703L63.7188 27.9922C63.375 28.3438 63.0742 28.6523 62.8164 28.918C62.5117 29.0508 62.2383 29.1367 61.9961 29.1758C61.7617 29.2227 61.5195 29.2461 61.2695 29.2461C60.3633 29.2461 59.6484 29.0156 59.125 28.5547C58.6094 28.0859 58.3516 27.5039 58.3516 26.8086L58.3984 22.9414V20.0469H58.082C57.6523 20.0469 57.2422 20.0586 56.8516 20.082ZM87.0273 26.8789L86.4883 28.0625C85.5117 28.5781 84.6328 28.9297 83.8516 29.1172C83.0781 29.3125 82.1094 29.4102 80.9453 29.4102C79.2891 29.4102 77.8242 29.1484 76.5508 28.625C75.5508 28.2031 74.7031 27.6445 74.0078 26.9492C73.3125 26.2539 72.7773 25.5 72.4023 24.6875C71.832 23.4609 71.5469 22.1289 71.5469 20.6914C71.5469 18.2305 72.3867 16.2227 74.0664 14.668C75.7539 13.1055 78.1328 12.3242 81.2031 12.3242C82.2578 12.3242 83.2031 12.4023 84.0391 12.5586C84.8828 12.7148 85.8594 12.9922 86.9688 13.3906L87.0273 13.543C86.9023 13.9102 86.8047 14.3711 86.7344 14.9258C86.6172 15.8086 86.543 16.625 86.5117 17.375H85.5977C85.582 16.5156 85.543 15.8281 85.4805 15.3125C84.957 14.7656 84.3672 14.3594 83.7109 14.0938C83.0625 13.8203 82.2305 13.6836 81.2148 13.6836C79.3789 13.6836 77.9102 14.2656 76.8086 15.4297C75.707 16.5859 75.1562 18.2031 75.1562 20.2812C75.1562 21.5391 75.3398 22.6367 75.707 23.5742C76.082 24.5117 76.5781 25.2891 77.1953 25.9062C77.8125 26.5156 78.4336 26.9609 79.0586 27.2422C79.9102 27.6172 80.9414 27.8047 82.1523 27.8047C82.9492 27.8047 83.7031 27.7148 84.4141 27.5352C85.125 27.3555 85.8984 27.0469 86.7344 26.6094L87.0273 26.8789ZM88.6562 23.4688C88.6562 22.1406 88.8828 21.043 89.3359 20.1758C89.7891 19.3008 90.4688 18.6445 91.375 18.207C92.2812 17.7617 93.3359 17.5391 94.5391 17.5391C96.3438 17.5391 97.7148 18.0117 98.6523 18.957C99.5977 19.9023 100.07 21.2891 100.07 23.1172C100.07 24.1719 99.9336 25.0859 99.6602 25.8594C99.3867 26.6328 99.0195 27.2578 98.5586 27.7344C98.0977 28.2031 97.6133 28.5586 97.1055 28.8008C96.2383 29.207 95.2617 29.4102 94.1758 29.4102C92.4102 29.4102 91.0469 28.9102 90.0859 27.9102C89.1328 26.9023 88.6562 25.4219 88.6562 23.4688ZM91.9023 22.9062C91.9023 24.9844 92.207 26.4648 92.8164 27.3477C93.2227 27.9336 93.8008 28.2266 94.5508 28.2266C95.1914 28.2266 95.6992 28.0039 96.0742 27.5586C96.5742 26.9648 96.8242 25.8164 96.8242 24.1133C96.8242 22.918 96.7227 21.8945 96.5195 21.043C96.3242 20.1836 96.0312 19.5859 95.6406 19.25C95.2578 18.9141 94.793 18.7461 94.2461 18.7461C93.7773 18.7461 93.3672 18.8711 93.0156 19.1211C92.6641 19.3633 92.3906 19.7773 92.1953 20.3633C92 20.9414 91.9023 21.7891 91.9023 22.9062ZM115.176 28.0977V29C114.113 28.9453 113.246 28.918 112.574 28.918C111.801 28.918 111.129 28.9453 110.559 29L110.348 28.7891C110.363 28.625 110.414 27.9492 110.5 26.7617L110.559 24.8398V23.9141C110.559 22.5469 110.504 21.6484 110.395 21.2188C110.293 20.7891 110.078 20.4453 109.75 20.1875C109.422 19.9219 108.984 19.7891 108.438 19.7891C107.891 19.7891 107.438 19.9219 107.078 20.1875C106.719 20.4453 106.492 20.707 106.398 20.9727C106.344 21.1289 106.32 21.7539 106.328 22.8477V24.8164C106.328 25.3867 106.344 26.0859 106.375 26.9141C106.383 27.2812 106.414 27.5234 106.469 27.6406C106.508 27.7266 106.559 27.7891 106.621 27.8281C106.715 27.8906 106.898 27.9492 107.172 28.0039C107.266 28.0195 107.594 28.0508 108.156 28.0977V29C107.305 28.9688 106.262 28.9531 105.027 28.9531C103.598 28.9531 102.488 28.9688 101.699 29V28.0977C102.309 28.0977 102.73 28.0547 102.965 27.9688C103.074 27.9297 103.156 27.8633 103.211 27.7695C103.289 27.6211 103.332 27.3398 103.34 26.9258L103.387 25.8828C103.395 25.6641 103.398 25.3086 103.398 24.8164V23.2812C103.398 22.5859 103.375 21.7422 103.328 20.75C103.305 20.25 103.27 19.9688 103.223 19.9062C103.184 19.8359 103.117 19.7852 103.023 19.7539C102.875 19.6992 102.434 19.6602 101.699 19.6367V18.7344C103.121 18.4922 104.055 18.3125 104.5 18.1953C104.945 18.0781 105.449 17.8906 106.012 17.6328L106.328 17.7734V19.6602L108.461 17.9492C108.719 17.8477 108.934 17.7812 109.105 17.75C109.285 17.7109 109.531 17.6914 109.844 17.6914C110.68 17.6914 111.305 17.7852 111.719 17.9727C112.141 18.1602 112.496 18.4258 112.785 18.7695C113.074 19.1055 113.277 19.4609 113.395 19.8359C113.512 20.2031 113.57 20.7812 113.57 21.5703C113.57 22.4609 113.562 23.0273 113.547 23.2695C113.539 23.3633 113.535 23.4766 113.535 23.6094L113.547 24.8164C113.555 26.1367 113.574 26.9531 113.605 27.2656C113.645 27.5781 113.715 27.7812 113.816 27.875C113.926 27.9609 114.16 28.0156 114.52 28.0391C114.652 28.0469 114.871 28.0664 115.176 28.0977ZM129.848 28.0977V29C128.785 28.9453 127.918 28.918 127.246 28.918C126.473 28.918 125.801 28.9453 125.23 29L125.02 28.7891C125.035 28.625 125.086 27.9492 125.172 26.7617L125.23 24.8398V23.9141C125.23 22.5469 125.176 21.6484 125.066 21.2188C124.965 20.7891 124.75 20.4453 124.422 20.1875C124.094 19.9219 123.656 19.7891 123.109 19.7891C122.562 19.7891 122.109 19.9219 121.75 20.1875C121.391 20.4453 121.164 20.707 121.07 20.9727C121.016 21.1289 120.992 21.7539 121 22.8477V24.8164C121 25.3867 121.016 26.0859 121.047 26.9141C121.055 27.2812 121.086 27.5234 121.141 27.6406C121.18 27.7266 121.23 27.7891 121.293 27.8281C121.387 27.8906 121.57 27.9492 121.844 28.0039C121.938 28.0195 122.266 28.0508 122.828 28.0977V29C121.977 28.9688 120.934 28.9531 119.699 28.9531C118.27 28.9531 117.16 28.9688 116.371 29V28.0977C116.98 28.0977 117.402 28.0547 117.637 27.9688C117.746 27.9297 117.828 27.8633 117.883 27.7695C117.961 27.6211 118.004 27.3398 118.012 26.9258L118.059 25.8828C118.066 25.6641 118.07 25.3086 118.07 24.8164V23.2812C118.07 22.5859 118.047 21.7422 118 20.75C117.977 20.25 117.941 19.9688 117.895 19.9062C117.855 19.8359 117.789 19.7852 117.695 19.7539C117.547 19.6992 117.105 19.6602 116.371 19.6367V18.7344C117.793 18.4922 118.727 18.3125 119.172 18.1953C119.617 18.0781 120.121 17.8906 120.684 17.6328L121 17.7734V19.6602L123.133 17.9492C123.391 17.8477 123.605 17.7812 123.777 17.75C123.957 17.7109 124.203 17.6914 124.516 17.6914C125.352 17.6914 125.977 17.7852 126.391 17.9727C126.812 18.1602 127.168 18.4258 127.457 18.7695C127.746 19.1055 127.949 19.4609 128.066 19.8359C128.184 20.2031 128.242 20.7812 128.242 21.5703C128.242 22.4609 128.234 23.0273 128.219 23.2695C128.211 23.3633 128.207 23.4766 128.207 23.6094L128.219 24.8164C128.227 26.1367 128.246 26.9531 128.277 27.2656C128.316 27.5781 128.387 27.7812 128.488 27.875C128.598 27.9609 128.832 28.0156 129.191 28.0391C129.324 28.0469 129.543 28.0664 129.848 28.0977ZM141.227 27.1953L140.711 28.3438C140.07 28.7344 139.41 29.0234 138.73 29.2109C138.223 29.3438 137.645 29.4102 136.996 29.4102C136.223 29.4102 135.539 29.3203 134.945 29.1406C134.359 28.9609 133.855 28.7148 133.434 28.4023C133.02 28.0898 132.652 27.707 132.332 27.2539C132.02 26.8008 131.793 26.2773 131.652 25.6836C131.512 25.0898 131.441 24.4414 131.441 23.7383C131.441 22.7148 131.578 21.8008 131.852 20.9961C132.039 20.4336 132.258 20.0273 132.508 19.7773C132.664 19.6211 133.07 19.3281 133.727 18.8984C134.383 18.4688 134.859 18.1875 135.156 18.0547C135.703 17.8125 136.348 17.6914 137.09 17.6914C138.137 17.6914 138.996 17.9102 139.668 18.3477C140.34 18.7852 140.812 19.3438 141.086 20.0234C141.367 20.7031 141.508 21.5273 141.508 22.4961C141.508 22.7148 141.5 22.9258 141.484 23.1289C141.289 23.1914 140.992 23.2617 140.594 23.3398C140.062 23.4414 139.703 23.4961 139.516 23.5039C138.93 23.5508 138.156 23.5781 137.195 23.5859C136.234 23.5938 135.703 23.6016 135.602 23.6094C135.5 23.6172 135.387 23.6211 135.262 23.6211H134.488C134.551 24.8555 134.934 25.832 135.637 26.5508C136.34 27.2617 137.207 27.6172 138.238 27.6172C138.684 27.6172 139.094 27.5703 139.469 27.4766C139.844 27.375 140.336 27.1719 140.945 26.8672L141.227 27.1953ZM138.438 22.3438C138.469 21.1016 138.301 20.2305 137.934 19.7305C137.559 19.2383 137.074 18.9922 136.48 18.9922C135.871 18.9922 135.367 19.25 134.969 19.7656C134.562 20.2891 134.375 21.1484 134.406 22.3438C134.867 22.4141 135.637 22.4492 136.715 22.4492C137.402 22.4492 137.977 22.4141 138.438 22.3438ZM152.441 27.4531L151.926 28.5898C151.254 28.9258 150.707 29.1445 150.285 29.2461C149.871 29.3555 149.371 29.4102 148.785 29.4102C147.504 29.4102 146.465 29.1602 145.668 28.6602C144.871 28.1602 144.266 27.4453 143.852 26.5156C143.555 25.8594 143.406 24.9844 143.406 23.8906C143.406 23.0703 143.484 22.3984 143.641 21.875C143.797 21.3516 144.02 20.8906 144.309 20.4922C144.504 20.2266 144.766 19.9766 145.094 19.7422L146.898 18.6055C147.508 18.2148 147.926 17.9805 148.152 17.9023C148.527 17.7617 149.016 17.6914 149.617 17.6914C150.117 17.6914 150.582 17.7344 151.012 17.8203C151.449 17.8984 151.852 18.0195 152.219 18.1836L152.336 18.3828L152.043 20.293C152.02 20.4648 151.98 21.0039 151.926 21.9102H151.012C150.965 21.2148 150.906 20.6992 150.836 20.3633C150.672 20.0977 150.418 19.8828 150.074 19.7188C149.73 19.5469 149.309 19.4609 148.809 19.4609C148.215 19.4609 147.742 19.5703 147.391 19.7891C147.039 20.0078 146.781 20.375 146.617 20.8906C146.453 21.4062 146.371 22.0312 146.371 22.7656C146.371 23.75 146.539 24.6328 146.875 25.4141C147.211 26.1875 147.652 26.7578 148.199 27.125C148.754 27.4844 149.434 27.6641 150.238 27.6641C150.605 27.6641 150.953 27.625 151.281 27.5469C151.609 27.4609 151.922 27.3398 152.219 27.1836L152.441 27.4531ZM153.555 20.082V19.5547L154.609 18.8867C154.781 18.7773 154.945 18.6602 155.102 18.5352V16.9648C155.102 16.4023 155.07 15.707 155.008 14.8789C155.766 14.6289 156.258 14.4609 156.484 14.375C156.523 14.3594 157.02 14.1289 157.973 13.6836L158.277 13.918L158.16 15.1367L158.078 16.4844L157.973 18.5352H158.359C159.398 18.5352 160.184 18.4961 160.715 18.418L160.516 20C160.422 20.0156 160.336 20.0234 160.258 20.0234L159.109 20H157.973V23.9141C157.973 25.1172 157.984 25.8281 158.008 26.0469C158.039 26.4141 158.168 26.7031 158.395 26.9141C158.629 27.1172 158.965 27.2188 159.402 27.2188C159.668 27.2266 159.879 27.2227 160.035 27.207C160.199 27.1836 160.406 27.1445 160.656 27.0898L160.844 27.5703L160.422 27.9922C160.078 28.3438 159.777 28.6523 159.52 28.918C159.215 29.0508 158.941 29.1367 158.699 29.1758C158.465 29.2227 158.223 29.2461 157.973 29.2461C157.066 29.2461 156.352 29.0156 155.828 28.5547C155.312 28.0859 155.055 27.5039 155.055 26.8086L155.102 22.9414V20.0469H154.785C154.355 20.0469 153.945 20.0586 153.555 20.082ZM171.883 27.1953L171.367 28.3438C170.727 28.7344 170.066 29.0234 169.387 29.2109C168.879 29.3438 168.301 29.4102 167.652 29.4102C166.879 29.4102 166.195 29.3203 165.602 29.1406C165.016 28.9609 164.512 28.7148 164.09 28.4023C163.676 28.0898 163.309 27.707 162.988 27.2539C162.676 26.8008 162.449 26.2773 162.309 25.6836C162.168 25.0898 162.098 24.4414 162.098 23.7383C162.098 22.7148 162.234 21.8008 162.508 20.9961C162.695 20.4336 162.914 20.0273 163.164 19.7773C163.32 19.6211 163.727 19.3281 164.383 18.8984C165.039 18.4688 165.516 18.1875 165.812 18.0547C166.359 17.8125 167.004 17.6914 167.746 17.6914C168.793 17.6914 169.652 17.9102 170.324 18.3477C170.996 18.7852 171.469 19.3438 171.742 20.0234C172.023 20.7031 172.164 21.5273 172.164 22.4961C172.164 22.7148 172.156 22.9258 172.141 23.1289C171.945 23.1914 171.648 23.2617 171.25 23.3398C170.719 23.4414 170.359 23.4961 170.172 23.5039C169.586 23.5508 168.812 23.5781 167.852 23.5859C166.891 23.5938 166.359 23.6016 166.258 23.6094C166.156 23.6172 166.043 23.6211 165.918 23.6211H165.145C165.207 24.8555 165.59 25.832 166.293 26.5508C166.996 27.2617 167.863 27.6172 168.895 27.6172C169.34 27.6172 169.75 27.5703 170.125 27.4766C170.5 27.375 170.992 27.1719 171.602 26.8672L171.883 27.1953ZM169.094 22.3438C169.125 21.1016 168.957 20.2305 168.59 19.7305C168.215 19.2383 167.73 18.9922 167.137 18.9922C166.527 18.9922 166.023 19.25 165.625 19.7656C165.219 20.2891 165.031 21.1484 165.062 22.3438C165.523 22.4141 166.293 22.4492 167.371 22.4492C168.059 22.4492 168.633 22.4141 169.094 22.3438ZM187.07 28.1562V29L184.609 28.9648L182.5 29L182.395 28.9062L182.453 27.9805L182.477 27.0195C181.938 27.4727 181.348 27.9805 180.707 28.543C180.457 28.7773 180.211 28.9766 179.969 29.1406C179.672 29.2578 179.277 29.3164 178.785 29.3164C177.488 29.3164 176.414 28.8438 175.562 27.8984C174.711 26.9453 174.285 25.6445 174.285 23.9961C174.285 23.082 174.41 22.2656 174.66 21.5469C174.848 21 175.066 20.5781 175.316 20.2812C175.496 20.0625 176.02 19.6484 176.887 19.0391C177.762 18.4297 178.387 18.0547 178.762 17.9141C179.145 17.7656 179.637 17.6914 180.238 17.6914C180.613 17.6914 180.922 17.7188 181.164 17.7734C181.414 17.8281 181.84 17.9727 182.441 18.207C182.465 17.7539 182.477 17.2734 182.477 16.7656C182.477 16.1719 182.457 15.4531 182.418 14.6094C182.402 14.2031 182.359 13.9492 182.289 13.8477C182.234 13.7695 182.156 13.7188 182.055 13.6953C181.953 13.6719 181.473 13.6484 180.613 13.625V12.7578C182.277 12.5938 183.82 12.2539 185.242 11.7383L185.547 11.9141C185.453 14.0078 185.402 15.2383 185.395 15.6055C185.371 17.6445 185.359 20.5 185.359 24.1719V25.2617C185.359 25.793 185.379 26.3672 185.418 26.9844C185.441 27.4219 185.48 27.6914 185.535 27.793C185.59 27.8867 185.68 27.957 185.805 28.0039C185.93 28.0508 186.352 28.1016 187.07 28.1562ZM182.441 20.668C182.012 20.1523 181.66 19.8164 181.387 19.6602C180.871 19.3633 180.305 19.2148 179.688 19.2148C179.148 19.2148 178.707 19.3477 178.363 19.6133C178.027 19.8711 177.773 20.293 177.602 20.8789C177.438 21.4648 177.355 22.1406 177.355 22.9062C177.355 24.3281 177.66 25.4258 178.27 26.1992C178.723 26.7695 179.332 27.0547 180.098 27.0547C180.676 27.0547 181.18 26.8906 181.609 26.5625C182.047 26.2344 182.305 25.918 182.383 25.6133C182.469 25.3086 182.512 24.3789 182.512 22.8242L182.441 20.668Z" fill="#202E0A"/>
</svg>
