<svg width="38" height="30" viewBox="0 0 38 30" fill="none" xmlns="http://www.w3.org/2000/svg">
<path d="M15.7369 24.2105C15.7369 24.2105 16.5036 29 16.8782 29C17.2527 29 19.5611 26.4211 19.5611 26.4211L22.2643 23.1053C23.9207 23.2727 24.8382 23.0164 26.486 22.3684C27.8256 21.5999 28.4476 21.0517 28.8045 19.4211C33.6796 18.9538 35.5402 17.7947 36.8734 13.5263C37.4759 9.65414 35.9877 7.93724 31.1128 5.42105C27.7586 2.23663 25.0863 1.11217 18.0222 1C12.6926 1.24867 10.4739 2.80246 7.27303 7.26316C-6.19706 15.3684 4.57427 28.2632 15.7369 24.2105Z" fill="white" stroke="white"/>
</svg>
