<svg width="56" height="56" viewBox="0 0 56 56" fill="none" xmlns="http://www.w3.org/2000/svg">
<path d="M27.6008 12.9375C22.3248 12.9375 17.6551 13.4833 14.8149 13.9078C12.4902 14.2515 10.6405 16.0708 10.216 18.4056C9.85215 20.4473 9.48828 23.429 9.48828 27.1688C9.48828 30.9086 9.85215 33.8903 10.216 35.932C10.6405 38.2668 12.4902 40.076 14.8149 40.4298C17.6652 40.8543 22.3551 41.4001 27.6008 41.4001C32.8466 41.4001 37.5264 40.8543 40.3767 40.4298H40.3868C42.7115 40.0861 44.5612 38.2668 44.9857 35.932C45.3495 33.8802 45.7134 30.8985 45.7134 27.1688C45.7134 23.429 45.3495 20.4473 44.9756 18.4056C44.5612 16.0708 42.7115 14.2515 40.3868 13.9078C37.5466 13.4833 32.8769 12.9375 27.6008 12.9375ZM27.6008 15.525C32.695 15.525 37.2535 16.0506 40.0027 16.465C41.2156 16.6469 42.196 17.597 42.4285 18.8605C42.7721 20.7708 43.1259 23.6009 43.1259 27.1688C43.1259 30.7367 42.7721 33.5668 42.4386 35.467C42.2061 36.7406 41.2257 37.6907 40.0027 37.8726C37.2333 38.2769 32.6647 38.8126 27.6008 38.8126C22.537 38.8126 17.9583 38.2769 15.199 37.8726C13.9861 37.6907 12.9956 36.7406 12.7631 35.467C12.4296 33.5567 12.0758 30.7367 12.0758 27.1688C12.0758 23.5908 12.4296 20.7708 12.7631 18.8605C12.9956 17.597 13.976 16.6469 15.1889 16.4751H15.199C17.9482 16.0607 22.5067 15.525 27.6008 15.525ZM22.4258 20.7V33.6376L35.3634 27.1688L22.4258 20.7Z" fill="white"/>
</svg>
