<svg width="291" height="220" viewBox="0 0 291 220" fill="none" xmlns="http://www.w3.org/2000/svg">
<path d="M196.57 61.1429H179.84V31.8374L196.57 37.6985V61.1429Z" fill="#2F2E41"/>
<path d="M199.543 209.938L196.091 210.027L194.166 193.001L199.261 192.868L199.543 209.938Z" fill="#A0616A"/>
<path d="M187.697 217.846C187.697 218.487 188.111 219.006 188.622 219.006H195.475C195.475 219.006 196.149 216.03 198.899 214.749L199.089 219.006H202.624L202.196 212.162C202.196 212.162 203.142 208.5 201.178 206.628C199.213 204.757 200.804 205.017 200.804 205.017L200.032 200.781L194.689 201.471L194.65 208.12L192.058 214.72L188.255 216.782C187.916 216.966 187.697 217.384 187.697 217.846L187.697 217.846L187.697 217.846V217.846Z" fill="#2F2E41"/>
<path d="M181.846 209.938L178.393 210.027L176.469 193.001L181.564 192.868L181.846 209.938Z" fill="#A0616A"/>
<path d="M170 217.846C170 218.487 170.414 219.006 170.925 219.006H177.778C177.778 219.006 178.452 216.03 181.202 214.749L181.392 219.006H184.927L184.499 212.162C184.499 212.162 185.444 208.5 183.48 206.628C181.516 204.757 183.107 205.017 183.107 205.017L182.334 200.781L176.992 201.471L176.953 208.12L174.36 214.72L170.558 216.782C170.219 216.966 170 217.384 170 217.846L170 217.846L170 217.846V217.846Z" fill="#2F2E41"/>
<path d="M197.64 93.1846L175.57 107.642L170.586 129.914L173.078 198.684H184.006L186.427 132.454L191.271 198.684H202.371L205.178 124.31C205.952 118.905 205.341 113.37 203.416 108.324L197.64 93.1846V93.1846V93.1846Z" fill="#2F2E41"/>
<path d="M192.656 49.03L183.401 48.2485L180.909 53.7189L173.79 55.6726L172.01 79.8984C175.531 89.9398 177.741 99.5355 175.569 107.641L202.623 106.078L198.106 92.6713C198.106 92.6713 197.996 87.7132 200.487 81.0707C202.979 74.4281 199.064 57.2355 199.064 57.2355L193.368 55.6726L192.656 49.03H192.656V49.03Z" fill="#FFD37B"/>
<path d="M130.337 58.4536C131.238 58.4843 132.071 58.289 132.726 57.9391L141.294 58.8263L141.559 54.3386L132.839 53.9218C132.205 53.528 131.385 53.2765 130.484 53.2458C128.425 53.1758 126.723 54.2848 126.682 55.7229C126.642 57.161 128.278 58.3836 130.337 58.4536H130.337V58.4536Z" fill="#A0616A"/>
<path d="M181.02 72.1542C181.02 72.1542 180.718 57.8577 177.861 55.7119C176.683 54.8269 158.568 54.6259 157.909 54.5508C153.839 54.0879 150.943 52.3143 147.516 52.1199C139.166 51.6462 134.944 53.8705 134.944 53.8705L134.797 58.4605L181.02 72.1542V72.1542Z" fill="#FFD37B"/>
<path d="M187.24 47.8784C191.321 47.8784 194.63 44.2465 194.63 39.7663C194.63 35.2862 191.321 31.6543 187.24 31.6543C183.158 31.6543 179.85 35.2862 179.85 39.7663C179.85 44.2465 183.158 47.8784 187.24 47.8784Z" fill="#A0616A"/>
<path d="M184.999 27.6873C183.41 28.7872 182.245 27.9997 181.11 28.5545C178.892 29.6383 175.147 37.2505 175.484 40.4374C175.963 44.951 177.474 45.1368 177.429 48.3751C177.356 53.575 176.98 53.5534 177.95 55.3691C179.029 57.3885 185.141 56.8402 186.275 54.1017C186.499 53.5615 184.013 53.7739 181.266 46.6861C179.887 43.1294 180.792 39.8885 181.266 38.4806C181.376 38.151 181.427 35.8109 181.664 36.0706C183.738 38.3477 184.901 36.6831 186.154 36.4921C188.725 36.1001 190.661 38.3767 191.441 37.5594C192.021 36.9512 191.281 35.3431 191.562 35.2248C191.862 35.0986 192.856 36.8627 193.507 38.76C193.926 39.9836 194.136 40.5954 194.114 41.2947C194.047 43.4545 193.546 49.5782 192.657 51.375C190.737 55.2551 193.154 56.7192 194.661 56.4364C195.879 56.2078 201.261 57.1076 201.556 56.4546C201.818 55.8729 201.219 49.8893 200.589 44.3265C199.832 37.6403 196.797 31.4961 192.039 27.2398C191.76 26.9902 191.552 26.8189 191.441 26.7535C191.177 26.5985 188.46 25.0497 186.458 26.2866C185.721 26.7419 185.841 27.1051 184.999 27.6873L184.999 27.6873V27.6873Z" fill="#2F2E41"/>
<path d="M92.6798 216.27L88.5795 216.27L86.6289 198.909L92.6806 198.91L92.6798 216.27Z" fill="#FFD8B5"/>
<path d="M78.6325 216.167C78.5049 216.403 78.4375 217.165 78.4375 217.44C78.4375 218.283 79.0606 218.967 79.8292 218.967H92.5275C93.0518 218.967 93.4769 218.501 93.4769 217.925V217.345C93.4769 217.345 94.1051 215.601 92.8118 213.451C92.8118 213.451 91.2044 215.134 88.8025 212.498L88.0942 211.089L82.9672 215.205L80.1254 215.589C79.5036 215.673 78.9524 215.576 78.6326 216.167H78.6325H78.6325Z" fill="#2F2E41"/>
<path d="M109.969 216.27L105.869 216.27L103.918 198.909L109.97 198.91L109.969 216.27Z" fill="#FFD8B5"/>
<path d="M95.9216 216.167C95.7939 216.403 95.7266 217.165 95.7266 217.44C95.7266 218.283 96.3496 218.967 97.1182 218.967H109.817C110.341 218.967 110.766 218.501 110.766 217.925V217.345C110.766 217.345 111.394 215.601 110.101 213.451C110.101 213.451 108.493 215.134 106.092 212.498L105.383 211.089L100.256 215.205L97.4144 215.589C96.7927 215.673 96.2415 215.576 95.9216 216.167H95.9216H95.9216Z" fill="#2F2E41"/>
<path d="M110.782 106.663L80.7016 106.284L77.5898 127.917L85.1965 202.683H95.1689L97.4708 133.04L101.62 204.012H111.83L116.487 123.173L110.782 106.663Z" fill="#2F2E41"/>
<path d="M238.308 213.288C239.023 213.337 239.417 212.363 238.877 211.795L238.823 211.56C238.83 211.541 238.837 211.523 238.844 211.504C239.567 209.613 242.015 209.626 242.731 211.52C243.367 213.2 244.176 214.884 244.376 216.661C244.465 217.445 244.425 218.244 244.266 219.014C245.756 215.442 246.54 211.542 246.54 207.62C246.54 206.635 246.49 205.649 246.39 204.666C246.307 203.862 246.193 203.063 246.046 202.272C245.249 197.992 243.522 193.915 241.032 190.51C239.835 189.792 238.837 188.669 238.234 187.323C238.018 186.838 237.848 186.316 237.768 185.784C237.904 185.804 238.281 183.526 238.178 183.387C238.368 183.07 238.708 182.913 238.915 182.605C239.947 181.07 241.367 181.338 242.109 183.423C243.693 184.301 243.709 185.757 242.736 187.157C242.118 188.047 242.033 189.253 241.49 190.206C241.546 190.285 241.604 190.361 241.66 190.439C242.684 191.88 243.569 193.43 244.316 195.057C244.105 193.248 244.416 191.069 244.947 189.664C245.552 188.064 246.685 186.716 247.682 185.332C248.881 183.67 251.338 184.395 251.549 186.502C251.551 186.523 251.553 186.543 251.555 186.564C251.407 186.655 251.262 186.753 251.12 186.856C250.311 187.443 250.591 188.819 251.549 188.982L251.571 188.985C251.517 189.571 251.426 190.152 251.292 190.723C252.572 196.157 249.808 198.136 245.863 198.224C245.776 198.273 245.691 198.322 245.604 198.369C246.004 199.604 246.323 200.872 246.56 202.156C246.772 203.291 246.919 204.438 247.002 205.591C247.105 207.044 247.096 208.505 246.984 209.956L246.991 209.905C247.274 208.307 248.065 206.814 249.213 205.779C250.923 204.237 253.339 203.67 255.183 202.43C256.071 201.834 257.209 202.605 257.054 203.735L257.047 203.789C256.772 203.911 256.504 204.054 256.245 204.213C256.097 204.305 255.952 204.402 255.81 204.505C255.001 205.092 255.28 206.469 256.239 206.631L256.261 206.635C256.276 206.637 256.29 206.64 256.305 206.642C255.834 207.87 255.178 209.01 254.356 209.993C253.555 214.736 250.118 215.186 246.441 213.805H246.439C246.037 215.727 245.45 217.604 244.695 219.394H238.464C238.442 219.318 238.422 219.239 238.402 219.163C238.978 219.203 239.559 219.166 240.126 219.051C239.664 218.428 239.201 217.801 238.739 217.178C238.728 217.166 238.719 217.153 238.71 217.141C238.476 216.823 238.239 216.506 238.004 216.188L238.004 216.187C237.989 215.209 238.096 214.234 238.308 213.288L238.308 213.288V213.288L238.308 213.288Z" fill="#AAC372"/>
<path d="M31.7812 219.548C31.7812 219.798 31.9645 219.999 32.1927 219.999H259.8C260.028 219.999 260.211 219.798 260.211 219.548C260.211 219.297 260.028 219.096 259.8 219.096H32.1927C31.9645 219.096 31.7812 219.297 31.7812 219.548Z" fill="#FFFCF2"/>
<path d="M100.583 49.9248H89.8764L87.7896 54.4791L77.5898 59.6207L81.2203 89.016L78.4542 108.372H113.007L109.918 85.9798L114.067 59.0334L102.657 54.0996L100.583 49.9248Z" fill="#D5E09C"/>
<path d="M136.419 121.155C135.953 120.109 135.739 119.034 135.764 118.094L130.742 108.441L134.997 105.952L139.632 116.012C140.324 116.567 140.968 117.411 141.435 118.456C142.501 120.845 142.243 123.386 140.858 124.131C139.474 124.876 137.486 123.544 136.419 121.155V121.155H136.419Z" fill="#FFD8B5"/>
<path d="M103.321 57.7374C103.321 57.7374 106.708 53.9117 110.508 56.574C114.308 59.2363 128.17 86.4801 128.17 86.4801L138.864 109.902L131.316 113.761L122.21 91.3334L103.086 68.7435L103.321 57.7374L103.321 57.7374H103.321Z" fill="#D5E09C"/>
<path d="M94.7769 47.7025C100.116 47.7025 104.444 42.9515 104.444 37.0908C104.444 31.2301 100.116 26.479 94.7769 26.479C89.4377 26.479 85.1094 31.2301 85.1094 37.0908C85.1094 42.9515 89.4377 47.7025 94.7769 47.7025Z" fill="#FFD8B5"/>
<path d="M91.7417 45.6318C91.7864 46.6715 91.8088 47.1913 91.6633 47.2541C91.2253 47.4432 85.5851 43.7869 84.921 41.353C84.6112 40.2178 84.8728 40.1951 84.6467 36.9655C84.4304 33.8767 84.188 33.8521 84.4746 33.0879C84.7932 32.2385 85.7661 31.192 87.7118 29.099C88.4475 28.3076 88.8154 27.9119 89.0476 27.7073C89.7514 27.0873 92.3733 24.7774 94.7775 25.0758C95.7852 25.2009 95.613 25.6425 99.3777 27.8835C99.7019 28.0765 100.137 28.3313 100.737 28.6239C102.198 29.3354 103.104 29.5198 103.581 29.7182C106.472 30.9208 105.623 37.6193 105.375 37.6577C105.284 37.6717 105.26 36.8031 104.785 36.7313C104.358 36.6666 104.087 37.3262 103.698 37.3502C102.639 37.4158 103.816 36.3021 101.222 35.0652C100.213 34.5843 103.019 36.7524 100.348 36.7172C96.1709 36.6622 98.8424 36.954 97.2561 37.8687C96.0992 38.5357 91.4453 34.8647 91.6344 36.0378C91.7678 36.8651 92.3147 37.1033 92.2358 38.0302C92.1594 38.9282 91.5446 39.896 91.0023 39.9316C90.5024 39.9644 90.2285 39.1944 90.0618 39.2681C89.8804 39.3483 90.0796 40.3144 90.4707 41.3071C90.9672 42.5673 91.2635 42.5771 91.5253 43.5463C91.6759 44.1038 91.6978 44.6131 91.7417 45.6318Z" fill="#2F353F"/>
<path d="M167.939 118.039L105.648 100.643C101.666 99.5308 99.251 95.0701 100.264 90.6993L108.013 57.2665C109.027 52.8957 113.09 50.2445 117.072 51.3565L179.363 68.7528C183.344 69.8649 185.76 74.3256 184.747 78.6963L176.997 112.129C175.984 116.5 171.921 119.151 167.939 118.039V118.039Z" fill="white"/>
<path d="M167.938 118.039L105.647 100.642C103.656 100.086 102.057 98.6931 100.915 96.8457C99.2523 94.158 98.8186 90.7741 99.5483 87.6259L106.047 59.5901C106.776 56.4419 108.631 53.697 111.261 52.2081C113.069 51.1847 115.08 50.7999 117.071 51.3559L179.362 68.7523C183.35 69.8661 185.76 74.318 184.746 78.6958L176.996 112.129C175.983 116.499 171.92 119.151 167.938 118.039ZM116.901 52.0916C113.283 51.0811 114.228 54.678 113.308 58.6495C108.816 78.026 118.106 98.0586 135.024 105.467C144.156 109.466 151.753 112.735 151.753 112.735C164.404 116.268 177.269 107.875 180.488 93.9884L184.076 78.5086C184.996 74.5371 182.809 70.4983 179.191 69.4879L116.901 52.0916Z" fill="#3F3D56"/>
<path d="M146.047 78.4357C145.613 74.5188 142.368 71.7299 138.8 72.2063C135.266 72.6783 132.741 76.1772 133.115 80.05L133.012 80.0638L134.584 94.248L146.474 92.6603C146.85 92.6826 147.232 92.6716 147.619 92.6199C151.187 92.1434 153.728 88.582 153.294 84.6651C152.86 80.7482 149.615 77.9592 146.047 78.4357Z" fill="#FD8484"/>
<path d="M146.047 78.4357C145.613 74.5188 142.368 71.7299 138.8 72.2063C135.266 72.6783 132.741 76.1772 133.115 80.05L133.012 80.0638L134.584 94.248L146.474 92.6603C146.85 92.6826 147.232 92.6716 147.619 92.6199C151.187 92.1434 153.728 88.582 153.294 84.6651C152.86 80.7482 149.615 77.9592 146.047 78.4357Z" fill="#FD8484"/>
<path d="M123.253 212.43H123.253C122.749 211.006 121.289 210.299 119.991 210.852H119.991C118.706 211.4 118.063 212.977 118.54 214.392L118.503 214.408L120.326 219.566L124.651 217.724C124.794 217.693 124.936 217.649 125.077 217.589H125.077C126.374 217.036 127.018 215.433 126.514 214.009V214.009C126.011 212.584 124.551 211.878 123.253 212.43L123.253 212.43V212.43Z" fill="#FD8484"/>
<path d="M220.067 212.43C219.564 211.006 218.104 210.299 216.806 210.852C215.52 211.4 214.877 212.977 215.355 214.392L215.317 214.408L217.141 219.566L221.465 217.724C221.608 217.693 221.751 217.649 221.891 217.589C223.189 217.036 223.833 215.433 223.329 214.009V214.009C222.825 212.584 221.365 211.878 220.067 212.43L220.067 212.43H220.067V212.43Z" fill="#FD8484"/>
<path d="M103.219 73.2689C102.329 73.9021 101.382 74.2621 100.528 74.3476L92.3933 80.9677L89.6367 76.6264L98.1857 70.3784C98.6057 69.5582 99.2919 68.7568 100.182 68.1236C102.216 66.677 104.545 66.6562 105.384 68.0771C106.222 69.4979 105.253 71.8224 103.219 73.2689H103.219V73.2689L103.219 73.2689Z" fill="#FFD8B5"/>
<path d="M84.1637 57.8211C84.1637 57.8211 77.9401 57.062 76.9028 59.7187C75.8655 62.3754 73.791 88.9422 73.791 88.9422L77.2486 95.3942L99.9228 76.5574L95.331 71.5172L85.6134 76.5574L84.1637 57.8211H84.1637V57.8211Z" fill="#D5E09C"/>
<path d="M174.307 66.4039C175.046 67.2388 175.896 67.8212 176.711 68.1132L183.299 76.5557L186.867 72.9974L179.8 64.8164C179.557 63.9141 179.051 62.9651 178.311 62.1301C176.622 60.2226 174.356 59.6331 173.25 60.8133C172.144 61.9934 172.617 64.4964 174.307 66.4039V66.4039Z" fill="#A0616A"/>
<path d="M196.016 56.002C196.016 56.002 202.238 56.7833 202.71 59.6269C203.182 62.4704 199.814 88.8772 199.814 88.8772L195.135 94.3219L176.852 70.4154L182.351 66.6242L190.802 73.9134L196.016 56.002V56.002V56.002Z" fill="#FFD37B"/>
</svg>
