<svg width="171" height="48" viewBox="0 0 171 48" fill="none" xmlns="http://www.w3.org/2000/svg">
<path d="M37.1162 20.2637H36.4131C36.4131 20.0762 36.4014 19.7979 36.3779 19.4287C36.3604 19.1709 36.3311 18.9512 36.29 18.7695C36.1436 18.5938 35.9854 18.4502 35.8154 18.3389C35.4346 18.0811 34.9951 17.8789 34.4971 17.7324C33.999 17.5859 33.4365 17.5127 32.8096 17.5127C31.3447 17.5127 30.1699 17.9668 29.2852 18.875C28.4062 19.7832 27.9668 21.0312 27.9668 22.6191C27.9668 24.3535 28.4297 25.7334 29.3555 26.7588C30.2871 27.7783 31.4268 28.2881 32.7744 28.2881C33.167 28.2881 33.5479 28.2471 33.917 28.165C34.292 28.083 34.6582 27.9629 35.0156 27.8047C35.0332 27.6465 35.0479 27.3418 35.0596 26.8906C35.0713 26.4395 35.0771 26.167 35.0771 26.0732C35.0771 25.5107 35.0537 25.1768 35.0068 25.0713C34.9717 25.001 34.8926 24.9512 34.7695 24.9219C34.5645 24.8633 34.0078 24.8076 33.0996 24.7549V24.043L35.7275 24.0781L38.373 24.043V24.623C38.0332 24.6934 37.8105 24.79 37.7051 24.9131C37.6523 24.9717 37.6201 25.1328 37.6084 25.3965C37.5791 26.0703 37.5645 26.5537 37.5645 26.8467C37.5645 27.292 37.5908 27.749 37.6436 28.2178C36.5537 28.6162 35.6016 28.8975 34.7871 29.0615C33.9785 29.2256 33.1699 29.3076 32.3613 29.3076C31.043 29.3076 29.877 29.085 28.8633 28.6396C28.1543 28.3232 27.5479 27.916 27.0439 27.418C26.54 26.9199 26.1562 26.3838 25.8926 25.8096C25.4766 24.9189 25.2686 23.9287 25.2686 22.8389C25.2686 21.9189 25.4033 21.1162 25.6729 20.4307C25.9482 19.7451 26.3291 19.1475 26.8154 18.6377C27.3018 18.1221 27.8525 17.7061 28.4678 17.3896C29.0889 17.0674 29.7363 16.8389 30.4102 16.7041C31.0898 16.5635 31.834 16.4932 32.6426 16.4932C33.6387 16.4932 34.5645 16.584 35.4199 16.7656C36.2812 16.9473 36.9521 17.1465 37.4326 17.3633L37.5029 17.5303C37.3623 18.0459 37.2334 18.957 37.1162 20.2637ZM47.3906 27.6465L47.0039 28.5078C46.5234 28.8008 46.0283 29.0176 45.5186 29.1582C45.1377 29.2578 44.7041 29.3076 44.2178 29.3076C43.6377 29.3076 43.125 29.2402 42.6797 29.1055C42.2402 28.9707 41.8623 28.7861 41.5459 28.5518C41.2354 28.3174 40.96 28.0303 40.7197 27.6904C40.4854 27.3506 40.3154 26.958 40.21 26.5127C40.1045 26.0674 40.0518 25.5811 40.0518 25.0537C40.0518 24.2861 40.1543 23.6006 40.3594 22.9971C40.5 22.5752 40.6641 22.2705 40.8516 22.083C40.9688 21.9658 41.2734 21.7461 41.7656 21.4238C42.2578 21.1016 42.6152 20.8906 42.8379 20.791C43.248 20.6094 43.7314 20.5186 44.2881 20.5186C45.0732 20.5186 45.7178 20.6826 46.2217 21.0107C46.7256 21.3389 47.0801 21.7578 47.2852 22.2676C47.4961 22.7773 47.6016 23.3955 47.6016 24.1221C47.6016 24.2861 47.5957 24.4443 47.584 24.5967C47.4375 24.6436 47.2148 24.6963 46.916 24.7549C46.5176 24.8311 46.248 24.8721 46.1074 24.8779C45.668 24.9131 45.0879 24.9336 44.3672 24.9395C43.6465 24.9453 43.248 24.9512 43.1719 24.957C43.0957 24.9629 43.0107 24.9658 42.917 24.9658H42.3369C42.3838 25.8916 42.6709 26.624 43.1982 27.1631C43.7256 27.6963 44.376 27.9629 45.1494 27.9629C45.4834 27.9629 45.791 27.9277 46.0723 27.8574C46.3535 27.7812 46.7227 27.6289 47.1797 27.4004L47.3906 27.6465ZM45.2988 24.0078C45.3223 23.0762 45.1963 22.4229 44.9209 22.0479C44.6396 21.6787 44.2764 21.4941 43.8311 21.4941C43.374 21.4941 42.9961 21.6875 42.6973 22.0742C42.3926 22.4668 42.252 23.1113 42.2754 24.0078C42.6211 24.0605 43.1982 24.0869 44.0068 24.0869C44.5225 24.0869 44.9531 24.0605 45.2988 24.0078ZM48.6387 22.3115V21.916L49.4297 21.415C49.5586 21.333 49.6816 21.2451 49.7988 21.1514V19.9736C49.7988 19.5518 49.7754 19.0303 49.7285 18.4092C50.2969 18.2217 50.666 18.0957 50.8359 18.0312C50.8652 18.0195 51.2373 17.8467 51.9521 17.5127L52.1807 17.6885L52.0928 18.6025L52.0312 19.6133L51.9521 21.1514H52.2422C53.0215 21.1514 53.6104 21.1221 54.0088 21.0635L53.8594 22.25C53.7891 22.2617 53.7246 22.2676 53.666 22.2676L52.8047 22.25H51.9521V25.1855C51.9521 26.0879 51.9609 26.6211 51.9785 26.7852C52.002 27.0605 52.0986 27.2773 52.2686 27.4355C52.4443 27.5879 52.6963 27.6641 53.0244 27.6641C53.2236 27.6699 53.3818 27.667 53.499 27.6553C53.6221 27.6377 53.7773 27.6084 53.9648 27.5674L54.1055 27.9277L53.7891 28.2441C53.5312 28.5078 53.3057 28.7393 53.1123 28.9385C52.8838 29.0381 52.6787 29.1025 52.4971 29.1318C52.3213 29.167 52.1396 29.1846 51.9521 29.1846C51.2725 29.1846 50.7363 29.0117 50.3438 28.666C49.957 28.3145 49.7637 27.8779 49.7637 27.3564L49.7988 24.4561V22.2852H49.5615C49.2393 22.2852 48.9316 22.2939 48.6387 22.3115ZM71.2705 27.4092L70.8662 28.2969C70.1338 28.6836 69.4746 28.9473 68.8887 29.0879C68.3086 29.2344 67.582 29.3076 66.709 29.3076C65.4668 29.3076 64.3682 29.1113 63.4131 28.7188C62.6631 28.4023 62.0273 27.9834 61.5059 27.4619C60.9844 26.9404 60.583 26.375 60.3018 25.7656C59.874 24.8457 59.6602 23.8467 59.6602 22.7686C59.6602 20.9229 60.29 19.417 61.5498 18.251C62.8154 17.0791 64.5996 16.4932 66.9023 16.4932C67.6934 16.4932 68.4023 16.5518 69.0293 16.6689C69.6621 16.7861 70.3945 16.9941 71.2266 17.293L71.2705 17.4072C71.1768 17.6826 71.1035 18.0283 71.0508 18.4443C70.9629 19.1064 70.9072 19.7188 70.8838 20.2812H70.1982C70.1865 19.6367 70.1572 19.1211 70.1104 18.7344C69.7178 18.3242 69.2754 18.0195 68.7832 17.8203C68.2969 17.6152 67.6729 17.5127 66.9111 17.5127C65.5342 17.5127 64.4326 17.9492 63.6064 18.8223C62.7803 19.6895 62.3672 20.9023 62.3672 22.4609C62.3672 23.4043 62.5049 24.2275 62.7803 24.9307C63.0615 25.6338 63.4336 26.2168 63.8965 26.6797C64.3594 27.1367 64.8252 27.4707 65.2939 27.6816C65.9326 27.9629 66.7061 28.1035 67.6143 28.1035C68.2119 28.1035 68.7773 28.0361 69.3105 27.9014C69.8438 27.7666 70.4238 27.5352 71.0508 27.207L71.2705 27.4092ZM72.4922 24.8516C72.4922 23.8555 72.6621 23.0322 73.002 22.3818C73.3418 21.7256 73.8516 21.2334 74.5312 20.9053C75.2109 20.5713 76.002 20.4043 76.9043 20.4043C78.2578 20.4043 79.2861 20.7588 79.9893 21.4678C80.6982 22.1768 81.0527 23.2168 81.0527 24.5879C81.0527 25.3789 80.9502 26.0645 80.7451 26.6445C80.54 27.2246 80.2646 27.6934 79.9189 28.0508C79.5732 28.4023 79.21 28.6689 78.8291 28.8506C78.1787 29.1553 77.4463 29.3076 76.6318 29.3076C75.3076 29.3076 74.2852 28.9326 73.5645 28.1826C72.8496 27.4268 72.4922 26.3164 72.4922 24.8516ZM74.9268 24.4297C74.9268 25.9883 75.1553 27.0986 75.6123 27.7607C75.917 28.2002 76.3506 28.4199 76.9131 28.4199C77.3936 28.4199 77.7744 28.2529 78.0557 27.9189C78.4307 27.4736 78.6182 26.6123 78.6182 25.335C78.6182 24.4385 78.542 23.6709 78.3896 23.0322C78.2432 22.3877 78.0234 21.9395 77.7305 21.6875C77.4434 21.4355 77.0947 21.3096 76.6846 21.3096C76.333 21.3096 76.0254 21.4033 75.7617 21.5908C75.498 21.7725 75.293 22.083 75.1465 22.5225C75 22.9561 74.9268 23.5918 74.9268 24.4297ZM92.3818 28.3232V29C91.585 28.959 90.9346 28.9385 90.4307 28.9385C89.8506 28.9385 89.3467 28.959 88.9189 29L88.7607 28.8418C88.7725 28.7188 88.8105 28.2119 88.875 27.3213L88.9189 25.8799V25.1855C88.9189 24.1602 88.8779 23.4863 88.7959 23.1641C88.7197 22.8418 88.5586 22.584 88.3125 22.3906C88.0664 22.1914 87.7383 22.0918 87.3281 22.0918C86.918 22.0918 86.5781 22.1914 86.3086 22.3906C86.0391 22.584 85.8691 22.7803 85.7988 22.9795C85.7578 23.0967 85.7402 23.5654 85.7461 24.3857V25.8623C85.7461 26.29 85.7578 26.8145 85.7812 27.4355C85.7871 27.7109 85.8105 27.8926 85.8516 27.9805C85.8809 28.0449 85.9189 28.0918 85.9658 28.1211C86.0361 28.168 86.1738 28.2119 86.3789 28.2529C86.4492 28.2646 86.6953 28.2881 87.1172 28.3232V29C86.4785 28.9766 85.6963 28.9648 84.7705 28.9648C83.6982 28.9648 82.8662 28.9766 82.2744 29V28.3232C82.7314 28.3232 83.0479 28.291 83.2236 28.2266C83.3057 28.1973 83.3672 28.1475 83.4082 28.0771C83.4668 27.9658 83.499 27.7549 83.5049 27.4443L83.54 26.6621C83.5459 26.498 83.5488 26.2314 83.5488 25.8623V24.7109C83.5488 24.1895 83.5312 23.5566 83.4961 22.8125C83.4785 22.4375 83.4521 22.2266 83.417 22.1797C83.3877 22.127 83.3379 22.0889 83.2676 22.0654C83.1562 22.0244 82.8252 21.9951 82.2744 21.9775V21.3008C83.3408 21.1191 84.041 20.9844 84.375 20.8965C84.709 20.8086 85.0869 20.668 85.5088 20.4746L85.7461 20.5801V21.9951L87.3457 20.7119C87.5391 20.6357 87.7002 20.5859 87.8291 20.5625C87.9639 20.5332 88.1484 20.5186 88.3828 20.5186C89.0098 20.5186 89.4785 20.5889 89.7891 20.7295C90.1055 20.8701 90.3721 21.0693 90.5889 21.3271C90.8057 21.5791 90.958 21.8457 91.0459 22.127C91.1338 22.4023 91.1777 22.8359 91.1777 23.4277C91.1777 24.0957 91.1719 24.5205 91.1602 24.7021C91.1543 24.7725 91.1514 24.8574 91.1514 24.957L91.1602 25.8623C91.166 26.8525 91.1807 27.4648 91.2041 27.6992C91.2334 27.9336 91.2861 28.0859 91.3623 28.1562C91.4443 28.2207 91.6201 28.2617 91.8896 28.2793C91.9893 28.2852 92.1533 28.2998 92.3818 28.3232ZM103.386 28.3232V29C102.589 28.959 101.938 28.9385 101.435 28.9385C100.854 28.9385 100.351 28.959 99.9229 29L99.7646 28.8418C99.7764 28.7188 99.8145 28.2119 99.8789 27.3213L99.9229 25.8799V25.1855C99.9229 24.1602 99.8818 23.4863 99.7998 23.1641C99.7236 22.8418 99.5625 22.584 99.3164 22.3906C99.0703 22.1914 98.7422 22.0918 98.332 22.0918C97.9219 22.0918 97.582 22.1914 97.3125 22.3906C97.043 22.584 96.873 22.7803 96.8027 22.9795C96.7617 23.0967 96.7441 23.5654 96.75 24.3857V25.8623C96.75 26.29 96.7617 26.8145 96.7852 27.4355C96.791 27.7109 96.8145 27.8926 96.8555 27.9805C96.8848 28.0449 96.9229 28.0918 96.9697 28.1211C97.04 28.168 97.1777 28.2119 97.3828 28.2529C97.4531 28.2646 97.6992 28.2881 98.1211 28.3232V29C97.4824 28.9766 96.7002 28.9648 95.7744 28.9648C94.7021 28.9648 93.8701 28.9766 93.2783 29V28.3232C93.7354 28.3232 94.0518 28.291 94.2275 28.2266C94.3096 28.1973 94.3711 28.1475 94.4121 28.0771C94.4707 27.9658 94.5029 27.7549 94.5088 27.4443L94.5439 26.6621C94.5498 26.498 94.5527 26.2314 94.5527 25.8623V24.7109C94.5527 24.1895 94.5352 23.5566 94.5 22.8125C94.4824 22.4375 94.4561 22.2266 94.4209 22.1797C94.3916 22.127 94.3418 22.0889 94.2715 22.0654C94.1602 22.0244 93.8291 21.9951 93.2783 21.9775V21.3008C94.3447 21.1191 95.0449 20.9844 95.3789 20.8965C95.7129 20.8086 96.0908 20.668 96.5127 20.4746L96.75 20.5801V21.9951L98.3496 20.7119C98.543 20.6357 98.7041 20.5859 98.833 20.5625C98.9678 20.5332 99.1523 20.5186 99.3867 20.5186C100.014 20.5186 100.482 20.5889 100.793 20.7295C101.109 20.8701 101.376 21.0693 101.593 21.3271C101.81 21.5791 101.962 21.8457 102.05 22.127C102.138 22.4023 102.182 22.8359 102.182 23.4277C102.182 24.0957 102.176 24.5205 102.164 24.7021C102.158 24.7725 102.155 24.8574 102.155 24.957L102.164 25.8623C102.17 26.8525 102.185 27.4648 102.208 27.6992C102.237 27.9336 102.29 28.0859 102.366 28.1562C102.448 28.2207 102.624 28.2617 102.894 28.2793C102.993 28.2852 103.157 28.2998 103.386 28.3232ZM111.92 27.6465L111.533 28.5078C111.053 28.8008 110.558 29.0176 110.048 29.1582C109.667 29.2578 109.233 29.3076 108.747 29.3076C108.167 29.3076 107.654 29.2402 107.209 29.1055C106.77 28.9707 106.392 28.7861 106.075 28.5518C105.765 28.3174 105.489 28.0303 105.249 27.6904C105.015 27.3506 104.845 26.958 104.739 26.5127C104.634 26.0674 104.581 25.5811 104.581 25.0537C104.581 24.2861 104.684 23.6006 104.889 22.9971C105.029 22.5752 105.193 22.2705 105.381 22.083C105.498 21.9658 105.803 21.7461 106.295 21.4238C106.787 21.1016 107.145 20.8906 107.367 20.791C107.777 20.6094 108.261 20.5186 108.817 20.5186C109.603 20.5186 110.247 20.6826 110.751 21.0107C111.255 21.3389 111.609 21.7578 111.814 22.2676C112.025 22.7773 112.131 23.3955 112.131 24.1221C112.131 24.2861 112.125 24.4443 112.113 24.5967C111.967 24.6436 111.744 24.6963 111.445 24.7549C111.047 24.8311 110.777 24.8721 110.637 24.8779C110.197 24.9131 109.617 24.9336 108.896 24.9395C108.176 24.9453 107.777 24.9512 107.701 24.957C107.625 24.9629 107.54 24.9658 107.446 24.9658H106.866C106.913 25.8916 107.2 26.624 107.728 27.1631C108.255 27.6963 108.905 27.9629 109.679 27.9629C110.013 27.9629 110.32 27.9277 110.602 27.8574C110.883 27.7812 111.252 27.6289 111.709 27.4004L111.92 27.6465ZM109.828 24.0078C109.852 23.0762 109.726 22.4229 109.45 22.0479C109.169 21.6787 108.806 21.4941 108.36 21.4941C107.903 21.4941 107.525 21.6875 107.227 22.0742C106.922 22.4668 106.781 23.1113 106.805 24.0078C107.15 24.0605 107.728 24.0869 108.536 24.0869C109.052 24.0869 109.482 24.0605 109.828 24.0078ZM120.331 27.8398L119.944 28.6924C119.44 28.9443 119.03 29.1084 118.714 29.1846C118.403 29.2666 118.028 29.3076 117.589 29.3076C116.628 29.3076 115.849 29.1201 115.251 28.7451C114.653 28.3701 114.199 27.834 113.889 27.1367C113.666 26.6445 113.555 25.9883 113.555 25.168C113.555 24.5527 113.613 24.0488 113.73 23.6562C113.848 23.2637 114.015 22.918 114.231 22.6191C114.378 22.4199 114.574 22.2324 114.82 22.0566L116.174 21.2041C116.631 20.9111 116.944 20.7354 117.114 20.6768C117.396 20.5713 117.762 20.5186 118.213 20.5186C118.588 20.5186 118.937 20.5508 119.259 20.6152C119.587 20.6738 119.889 20.7646 120.164 20.8877L120.252 21.0371L120.032 22.4697C120.015 22.5986 119.985 23.0029 119.944 23.6826H119.259C119.224 23.1611 119.18 22.7744 119.127 22.5225C119.004 22.3232 118.813 22.1621 118.556 22.0391C118.298 21.9102 117.981 21.8457 117.606 21.8457C117.161 21.8457 116.807 21.9277 116.543 22.0918C116.279 22.2559 116.086 22.5312 115.963 22.918C115.84 23.3047 115.778 23.7734 115.778 24.3242C115.778 25.0625 115.904 25.7246 116.156 26.3105C116.408 26.8906 116.739 27.3184 117.149 27.5938C117.565 27.8633 118.075 27.998 118.679 27.998C118.954 27.998 119.215 27.9688 119.461 27.9102C119.707 27.8457 119.941 27.7549 120.164 27.6377L120.331 27.8398ZM121.166 22.3115V21.916L121.957 21.415C122.086 21.333 122.209 21.2451 122.326 21.1514V19.9736C122.326 19.5518 122.303 19.0303 122.256 18.4092C122.824 18.2217 123.193 18.0957 123.363 18.0312C123.393 18.0195 123.765 17.8467 124.479 17.5127L124.708 17.6885L124.62 18.6025L124.559 19.6133L124.479 21.1514H124.77C125.549 21.1514 126.138 21.1221 126.536 21.0635L126.387 22.25C126.316 22.2617 126.252 22.2676 126.193 22.2676L125.332 22.25H124.479V25.1855C124.479 26.0879 124.488 26.6211 124.506 26.7852C124.529 27.0605 124.626 27.2773 124.796 27.4355C124.972 27.5879 125.224 27.6641 125.552 27.6641C125.751 27.6699 125.909 27.667 126.026 27.6553C126.149 27.6377 126.305 27.6084 126.492 27.5674L126.633 27.9277L126.316 28.2441C126.059 28.5078 125.833 28.7393 125.64 28.9385C125.411 29.0381 125.206 29.1025 125.024 29.1318C124.849 29.167 124.667 29.1846 124.479 29.1846C123.8 29.1846 123.264 29.0117 122.871 28.666C122.484 28.3145 122.291 27.8779 122.291 27.3564L122.326 24.4561V22.2852H122.089C121.767 22.2852 121.459 22.2939 121.166 22.3115ZM134.912 27.6465L134.525 28.5078C134.045 28.8008 133.55 29.0176 133.04 29.1582C132.659 29.2578 132.226 29.3076 131.739 29.3076C131.159 29.3076 130.646 29.2402 130.201 29.1055C129.762 28.9707 129.384 28.7861 129.067 28.5518C128.757 28.3174 128.481 28.0303 128.241 27.6904C128.007 27.3506 127.837 26.958 127.731 26.5127C127.626 26.0674 127.573 25.5811 127.573 25.0537C127.573 24.2861 127.676 23.6006 127.881 22.9971C128.021 22.5752 128.186 22.2705 128.373 22.083C128.49 21.9658 128.795 21.7461 129.287 21.4238C129.779 21.1016 130.137 20.8906 130.359 20.791C130.77 20.6094 131.253 20.5186 131.81 20.5186C132.595 20.5186 133.239 20.6826 133.743 21.0107C134.247 21.3389 134.602 21.7578 134.807 22.2676C135.018 22.7773 135.123 23.3955 135.123 24.1221C135.123 24.2861 135.117 24.4443 135.105 24.5967C134.959 24.6436 134.736 24.6963 134.438 24.7549C134.039 24.8311 133.77 24.8721 133.629 24.8779C133.189 24.9131 132.609 24.9336 131.889 24.9395C131.168 24.9453 130.77 24.9512 130.693 24.957C130.617 24.9629 130.532 24.9658 130.438 24.9658H129.858C129.905 25.8916 130.192 26.624 130.72 27.1631C131.247 27.6963 131.897 27.9629 132.671 27.9629C133.005 27.9629 133.312 27.9277 133.594 27.8574C133.875 27.7812 134.244 27.6289 134.701 27.4004L134.912 27.6465ZM132.82 24.0078C132.844 23.0762 132.718 22.4229 132.442 22.0479C132.161 21.6787 131.798 21.4941 131.353 21.4941C130.896 21.4941 130.518 21.6875 130.219 22.0742C129.914 22.4668 129.773 23.1113 129.797 24.0078C130.143 24.0605 130.72 24.0869 131.528 24.0869C132.044 24.0869 132.475 24.0605 132.82 24.0078ZM146.303 28.3672V29L144.457 28.9736L142.875 29L142.796 28.9297L142.84 28.2354L142.857 27.5146C142.453 27.8545 142.011 28.2354 141.53 28.6572C141.343 28.833 141.158 28.9824 140.977 29.1055C140.754 29.1934 140.458 29.2373 140.089 29.2373C139.116 29.2373 138.311 28.8828 137.672 28.1738C137.033 27.459 136.714 26.4834 136.714 25.2471C136.714 24.5615 136.808 23.9492 136.995 23.4102C137.136 23 137.3 22.6836 137.487 22.4609C137.622 22.2969 138.015 21.9863 138.665 21.5293C139.321 21.0723 139.79 20.791 140.071 20.6855C140.358 20.5742 140.728 20.5186 141.179 20.5186C141.46 20.5186 141.691 20.5391 141.873 20.5801C142.061 20.6211 142.38 20.7295 142.831 20.9053C142.849 20.5654 142.857 20.2051 142.857 19.8242C142.857 19.3789 142.843 18.8398 142.813 18.207C142.802 17.9023 142.77 17.7119 142.717 17.6357C142.676 17.5771 142.617 17.5391 142.541 17.5215C142.465 17.5039 142.104 17.4863 141.46 17.4688V16.8184C142.708 16.6953 143.865 16.4404 144.932 16.0537L145.16 16.1855C145.09 17.7559 145.052 18.6787 145.046 18.9541C145.028 20.4834 145.02 22.625 145.02 25.3789V26.1963C145.02 26.5947 145.034 27.0254 145.063 27.4883C145.081 27.8164 145.11 28.0186 145.151 28.0947C145.192 28.165 145.26 28.2178 145.354 28.2529C145.447 28.2881 145.764 28.3262 146.303 28.3672ZM142.831 22.751C142.509 22.3643 142.245 22.1123 142.04 21.9951C141.653 21.7725 141.229 21.6611 140.766 21.6611C140.361 21.6611 140.03 21.7607 139.772 21.96C139.521 22.1533 139.33 22.4697 139.201 22.9092C139.078 23.3486 139.017 23.8555 139.017 24.4297C139.017 25.4961 139.245 26.3193 139.702 26.8994C140.042 27.3271 140.499 27.541 141.073 27.541C141.507 27.541 141.885 27.418 142.207 27.1719C142.535 26.9258 142.729 26.6885 142.787 26.46C142.852 26.2314 142.884 25.5342 142.884 24.3682L142.831 22.751Z" fill="#3A4520"/>
<rect x="1" y="1" width="169" height="46" rx="23" stroke="#3A4520" stroke-width="2"/>
</svg>
