<svg width="291" height="220" viewBox="0 0 291 220" fill="none" xmlns="http://www.w3.org/2000/svg">
<path d="M218.591 219.267H102.666C101.947 219.266 101.258 218.944 100.75 218.371C100.242 217.798 99.9559 217.022 99.9551 216.212V126.976C99.9559 126.166 100.242 125.389 100.75 124.816C101.258 124.243 101.947 123.921 102.666 123.92H218.591C219.31 123.921 219.999 124.243 220.507 124.816C221.015 125.389 221.301 126.166 221.302 126.976V216.212C221.301 217.022 221.015 217.798 220.507 218.371C219.999 218.944 219.31 219.266 218.591 219.267Z" fill="white"/>
<path d="M218.591 219.267H102.666C101.947 219.266 101.258 218.944 100.75 218.371C100.242 217.798 99.9559 217.022 99.9551 216.212V126.976C99.9559 126.166 100.242 125.389 100.75 124.816C101.258 124.243 101.947 123.921 102.666 123.92H218.591C219.31 123.921 219.999 124.243 220.507 124.816C221.015 125.389 221.301 126.166 221.302 126.976V216.212C221.301 217.022 221.015 217.798 220.507 218.371C219.999 218.944 219.31 219.266 218.591 219.267ZM102.666 124.599C102.107 124.6 101.571 124.85 101.176 125.296C100.78 125.741 100.558 126.346 100.557 126.976V216.212C100.558 216.842 100.78 217.446 101.176 217.891C101.571 218.337 102.107 218.588 102.666 218.588H218.591C219.15 218.588 219.686 218.337 220.081 217.891C220.477 217.446 220.699 216.842 220.699 216.212V126.976C220.699 126.346 220.477 125.741 220.081 125.296C219.686 124.85 219.15 124.6 218.591 124.599H102.666Z" fill="#3F3D56"/>
<path d="M174.047 218.73H147.209V168.643C147.21 167.455 147.629 166.316 148.374 165.476C149.12 164.636 150.13 164.163 151.184 164.162H170.073C171.126 164.163 172.137 164.636 172.882 165.476C173.627 166.316 174.046 167.455 174.047 168.643V218.73Z" fill="#E6E6E6"/>
<path d="M212.268 104.898H196.941V76.0226C196.942 75.2124 197.228 74.4357 197.736 73.8628C198.244 73.29 198.933 72.9677 199.652 72.9668H209.558C210.276 72.9677 210.965 73.29 211.473 73.8628C211.982 74.4357 212.267 75.2124 212.268 76.0226V104.898Z" fill="white"/>
<path d="M212.268 104.898H196.941V76.0226C196.942 75.2124 197.228 74.4357 197.736 73.8628C198.244 73.29 198.933 72.9677 199.652 72.9668H209.558C210.276 72.9677 210.965 73.29 211.473 73.8628C211.982 74.4357 212.267 75.2124 212.268 76.0226V104.898ZM197.544 104.218H211.666V76.0226C211.665 75.3924 211.443 74.7883 211.048 74.3428C210.652 73.8972 210.117 73.6466 209.558 73.6459H199.652C199.093 73.6466 198.557 73.8972 198.162 74.3428C197.767 74.7883 197.544 75.3924 197.544 76.0226V104.218Z" fill="#3F3D56"/>
<path d="M125.856 117.056C142.156 117.056 155.37 102.16 155.37 83.7847C155.37 65.4096 142.156 50.5137 125.856 50.5137C109.556 50.5137 96.3418 65.4096 96.3418 83.7847C96.3418 102.16 109.556 117.056 125.856 117.056Z" fill="#FFD37B"/>
<path d="M135.874 178.712H113.204C112.299 178.711 111.433 178.306 110.793 177.585C110.154 176.864 109.794 175.887 109.793 174.867V153.798C109.794 152.779 110.154 151.801 110.793 151.081C111.433 150.36 112.299 149.954 113.204 149.953H135.874C136.779 149.954 137.646 150.36 138.285 151.081C138.924 151.801 139.284 152.779 139.285 153.798V174.867C139.284 175.887 138.924 176.864 138.285 177.585C137.646 178.306 136.779 178.711 135.874 178.712Z" fill="#9AC5F7"/>
<path d="M208.577 178.712H185.907C185.003 178.711 184.136 178.306 183.496 177.585C182.857 176.864 182.497 175.887 182.496 174.867V153.798C182.497 152.779 182.857 151.801 183.496 151.081C184.136 150.36 185.003 149.954 185.907 149.953H208.577C209.482 149.954 210.349 150.36 210.988 151.081C211.628 151.801 211.987 152.779 211.988 153.798V174.867C211.987 175.887 211.628 176.864 210.988 177.585C210.349 178.306 209.482 178.711 208.577 178.712Z" fill="#9AC5F7"/>
<path d="M91.3008 125.754V112.025C91.3008 110.97 91.5481 109.934 92.0176 109.022C92.4872 108.11 93.1623 107.354 93.9746 106.83L161.644 63.23C162.484 62.6888 163.439 62.4167 164.407 62.4432C165.374 62.4696 166.316 62.7936 167.132 63.3801L227.504 106.789C228.256 107.33 228.875 108.075 229.304 108.957C229.733 109.839 229.958 110.828 229.958 111.833V125.754C229.958 127.341 229.399 128.863 228.403 129.985C227.408 131.107 226.058 131.737 224.65 131.737H96.6082C95.2006 131.737 93.8506 131.107 92.8553 129.985C91.86 128.863 91.3008 127.341 91.3008 125.754Z" fill="#F09C78"/>
<path opacity="0.2" d="M224.65 125.628H96.6082C95.2006 125.628 93.8506 124.997 92.8553 123.875C91.86 122.753 91.3008 121.231 91.3008 119.645V125.077C91.3008 126.664 91.86 128.186 92.8553 129.308C93.8506 130.43 95.2006 131.06 96.6082 131.06H224.65C226.058 131.06 227.408 130.43 228.403 129.308C229.399 128.186 229.958 126.664 229.958 125.077V119.645C229.958 121.231 229.399 122.753 228.403 123.875C227.408 124.997 226.058 125.628 224.65 125.628Z" fill="black"/>
<path d="M235.045 172.61C235.045 162.082 242.616 137.098 251.956 137.098C261.296 137.098 268.867 162.082 268.867 172.61C268.867 177.666 267.085 182.515 263.914 186.09C260.742 189.666 256.441 191.674 251.956 191.674C247.471 191.674 243.169 189.666 239.998 186.09C236.827 182.515 235.045 177.666 235.045 172.61Z" fill="#D5E09C"/>
<path d="M251.958 218.86C251.878 218.86 251.801 218.825 251.745 218.761C251.688 218.697 251.656 218.611 251.656 218.521V150.068C251.656 149.978 251.688 149.892 251.745 149.828C251.801 149.764 251.878 149.729 251.958 149.729C252.038 149.729 252.114 149.764 252.171 149.828C252.227 149.892 252.259 149.978 252.259 150.068V218.521C252.259 218.611 252.227 218.697 252.171 218.761C252.114 218.825 252.038 218.86 251.958 218.86Z" fill="#3F3D56"/>
<path d="M251.957 180.427C251.898 180.427 251.841 180.407 251.792 180.371C251.742 180.334 251.704 180.282 251.681 180.221C251.657 180.16 251.651 180.092 251.661 180.027C251.672 179.961 251.699 179.901 251.739 179.853L260.336 169.683C260.363 169.651 260.396 169.625 260.432 169.607C260.468 169.589 260.507 169.579 260.547 169.578C260.586 169.577 260.626 169.585 260.663 169.601C260.7 169.617 260.733 169.641 260.762 169.672C260.791 169.703 260.813 169.739 260.829 169.78C260.845 169.821 260.854 169.865 260.855 169.91C260.856 169.954 260.849 169.998 260.835 170.04C260.821 170.082 260.799 170.12 260.772 170.152L252.176 180.321C252.147 180.355 252.114 180.381 252.076 180.399C252.039 180.417 251.998 180.427 251.957 180.427Z" fill="#3F3D56"/>
<path d="M251.957 163.278C251.882 163.278 251.81 163.246 251.754 163.189L244.325 155.532C244.296 155.502 244.272 155.466 244.255 155.425C244.238 155.385 244.229 155.341 244.227 155.297C244.225 155.252 244.231 155.207 244.245 155.165C244.258 155.123 244.279 155.085 244.305 155.052C244.332 155.019 244.364 154.992 244.4 154.973C244.436 154.954 244.475 154.944 244.515 154.942C244.554 154.94 244.594 154.947 244.631 154.962C244.668 154.977 244.702 155.001 244.732 155.031L252.161 162.688C252.206 162.734 252.237 162.795 252.251 162.861C252.265 162.928 252.26 162.998 252.238 163.062C252.216 163.125 252.178 163.18 252.128 163.219C252.077 163.257 252.018 163.278 251.957 163.278V163.278Z" fill="#3F3D56"/>
<path d="M28.6348 151.66C28.6348 136.172 39.7725 99.4199 53.5115 99.4199C67.2506 99.4199 78.3883 136.172 78.3883 151.66C78.3883 159.098 75.7673 166.231 71.102 171.49C66.4367 176.749 60.1092 179.704 53.5115 179.704C46.9138 179.704 40.5863 176.749 35.921 171.49C31.2557 166.231 28.6348 159.098 28.6348 151.66Z" fill="#D5E09C"/>
<path d="M53.5123 219.54C53.4324 219.54 53.3557 219.505 53.2992 219.441C53.2427 219.377 53.2109 219.291 53.2109 219.201V118.504C53.2109 118.414 53.2427 118.327 53.2992 118.264C53.3557 118.2 53.4324 118.164 53.5123 118.164C53.5923 118.164 53.6689 118.2 53.7255 118.264C53.782 118.327 53.8137 118.414 53.8137 118.504V219.201C53.8137 219.291 53.782 219.377 53.7255 219.441C53.6689 219.505 53.5923 219.54 53.5123 219.54Z" fill="#3F3D56"/>
<path d="M53.5121 163C53.4532 163 53.3955 162.981 53.3463 162.944C53.2971 162.907 53.2585 162.855 53.2353 162.794C53.2121 162.733 53.2053 162.666 53.2157 162.6C53.2262 162.535 53.2535 162.474 53.2941 162.426L65.94 147.467C65.9951 147.401 66.0709 147.364 66.1508 147.361C66.2307 147.359 66.308 147.393 66.3659 147.455C66.4237 147.517 66.4573 147.603 66.4592 147.693C66.4611 147.783 66.4312 147.87 66.3761 147.935L53.7302 162.895C53.7021 162.928 53.6682 162.955 53.6308 162.973C53.5933 162.991 53.5529 163 53.5121 163Z" fill="#3F3D56"/>
<path d="M53.511 137.777C53.4358 137.777 53.3632 137.745 53.3078 137.688L42.3792 126.424C42.3202 126.363 42.2851 126.279 42.2816 126.189C42.278 126.099 42.3063 126.011 42.3602 125.944C42.4141 125.878 42.4892 125.838 42.569 125.834C42.6488 125.83 42.7267 125.862 42.7857 125.923L53.7143 137.187C53.7591 137.233 53.7905 137.294 53.8043 137.36C53.8181 137.427 53.8138 137.497 53.7918 137.56C53.7698 137.624 53.7312 137.679 53.6811 137.718C53.631 137.756 53.5717 137.777 53.511 137.777H53.511Z" fill="#3F3D56"/>
<path d="M240.142 218.826C240.171 218.851 240.201 218.874 240.23 218.898H264.719C265.199 216.706 265.368 214.512 264.652 212.607C263.63 209.892 260.608 208.197 258.205 209.363C257.636 209.647 257.14 210.089 256.764 210.648C255.825 208.753 254.141 207.325 252.196 207.326C249.76 207.328 247.735 209.574 247.074 212.168C246.01 210.142 243.908 208.727 241.853 209.336C238.416 210.354 237.33 216.377 240.142 218.826Z" fill="#3A4520"/>
<path d="M29.7518 219.437C29.8093 219.487 29.87 219.532 29.9283 219.581H79.3661C80.3348 215.156 80.6768 210.727 79.2299 206.881C77.1682 201.4 71.0668 197.978 66.216 200.332C65.0667 200.905 64.0655 201.798 63.3068 202.927C61.4111 199.102 58.0107 196.218 54.0857 196.221C49.1683 196.225 45.0797 200.758 43.7454 205.994C41.5969 201.906 37.3531 199.049 33.205 200.278C26.2672 202.334 24.0758 214.492 29.7518 219.437Z" fill="#3A4520"/>
<path d="M277.999 218.597L22 219.137L22.0012 219.816L278 219.276L277.999 218.597Z" fill="#FFFCF2"/>
<path d="M277.999 218.597L22 219.137L22.0012 219.816L278 219.276L277.999 218.597Z" fill="#FFFCF2"/>
<path d="M211.112 27.694C208.662 29.7132 209.603 31.9108 214.225 40.0271C223.463 35.4073 225.697 33.3967 223.999 30.9219C221.729 29.2698 219.679 29.3081 216.446 33.1205C217.195 31.6233 213.562 25.6748 211.112 27.694Z" fill="#FFD37B"/>
<path d="M216.634 33.3225C216.752 32.9485 215.696 34.6177 216.446 33.1205M216.446 33.1205C217.195 31.6233 213.562 25.6748 211.112 27.694C208.662 29.7132 209.603 31.9108 214.225 40.0271C223.463 35.4073 225.697 33.3967 223.999 30.9219C221.729 29.2698 219.679 29.3081 216.446 33.1205Z" stroke="#FFD37B" stroke-width="2" stroke-linecap="round"/>
<path d="M195.793 18.716C195.173 20.9382 196.799 21.6805 203.53 23.8912C207.264 17.1197 207.75 15.0025 205.513 14.4627C203.295 14.6304 202.006 15.6031 201.724 19.1516C201.503 17.9998 196.413 16.4938 195.793 18.716Z" fill="#F8F3E3"/>
<path d="M201.938 19.1729C201.839 18.9172 201.945 20.3035 201.724 19.1516M201.724 19.1516C201.503 17.9998 196.413 16.4938 195.793 18.716C195.173 20.9382 196.799 21.6805 203.53 23.8912C207.264 17.1197 207.75 15.0025 205.513 14.4627C203.295 14.6304 202.006 15.6031 201.724 19.1516Z" stroke="#F8F3E3" stroke-width="2" stroke-linecap="round"/>
<path d="M190.93 48.6224C188.314 53.1152 190.939 55.9962 202.367 66C213.858 53.6987 216.15 49.3395 212.227 46.4502C207.885 45.1541 204.798 46.3545 201.973 54.0617C202.293 51.3246 193.545 44.1297 190.93 48.6224Z" fill="#F09C78"/>
<path d="M202.367 54.2701C202.343 53.6248 201.652 56.7988 201.973 54.0617M201.973 54.0617C202.293 51.3246 193.545 44.1297 190.93 48.6224C188.314 53.1152 190.939 55.9962 202.367 66C213.858 53.6987 216.15 49.3395 212.227 46.4502C207.885 45.1541 204.798 46.3545 201.973 54.0617Z" stroke="#F09C78" stroke-width="2" stroke-linecap="round"/>
</svg>
