<svg width="142" height="85" viewBox="0 0 142 85" fill="none" xmlns="http://www.w3.org/2000/svg">
<path d="M0 48.9165H3.40154V31.1912H0V30.5717H7.11187V35.3006H7.20125C7.90659 33.7525 9.71868 30.0854 14.7974 30.0854C18.6865 30.0854 21.3779 31.897 21.3779 36.0047V48.9165H24.7794V49.536H14.1799V48.9165H17.5798V34.6387C17.5798 32.3426 16.5201 30.705 14.2237 30.705C10.4256 30.705 7.20125 34.2436 7.20125 38.9253V48.9165H10.6012V49.536H0V48.9165Z" fill="#F8F3E3"/>
<path d="M28.801 38.5777C28.801 39.1534 28.7571 39.7274 28.7571 40.6576C28.7571 44.5913 29.3747 49.543 34.5867 49.543C39.7987 49.543 40.9477 45.9654 41.3898 44.5474L42.0513 44.6775C41.6547 45.9605 40.4618 50.1593 34.5396 50.1593C28.6174 50.1593 24.3398 46.1833 24.3398 40.1714C24.3398 34.9546 28.7116 30.0078 34.2796 30.0078C37.5462 30.0078 42.4055 32.1218 42.4055 38.5777H28.801ZM37.9021 37.9614C37.9734 37.2129 38.0027 36.461 37.9899 35.7092C37.9899 31.7299 36.4004 30.6241 34.104 30.6241C30.1255 30.6241 29.1098 34.1155 28.8481 37.9614H37.9021Z" fill="#F8F3E3"/>
<path d="M41.6094 30.5801H52.256V31.1996H48.5896L53.5367 44.9879L58.1295 34.0715L57.0244 31.1996H55.17V30.5801H63.9623V31.1996H61.0029L66.1255 44.9001L71.6512 31.1996H67.4939V30.5801H74.6952V31.1996H72.3549L64.4467 50.9999L58.4334 34.9545L51.7197 50.9999L44.6144 31.1996H41.6094V30.5801Z" fill="#F8F3E3"/>
<path d="M72.5195 48.9168H77.4244V18.6896H72.5195V18.0732H86.7449V18.6896H81.84V48.9168H89.7011C94.8693 48.9168 97.6987 45.4254 99.0249 39.8541H99.5125V49.5363H72.5195V48.9168Z" fill="#F8F3E3"/>
<path d="M123.937 17.2764C121.376 17.2764 118.946 18.9562 117.399 20.8978C116.25 22.3614 115.408 24.1274 115.408 28.2351V30.58H112.01V31.1996H115.408V48.9167H108.564V30.58H101.361V31.1996H104.763V48.9167H101.361V49.5363H123.228V48.9167H119.209V31.1915H124.688V30.5719H119.209V24.4364C119.209 19.927 121.241 17.8959 123.672 17.8959C124.776 17.8959 126.11 18.2049 126.11 19.5319C126.11 20.545 125.268 21.2101 125.268 22.2281C125.268 23.4217 126.549 23.6396 127.303 23.6396C128.847 23.6396 129.415 22.4915 129.415 21.3873C129.414 19.7953 127.781 17.2764 123.937 17.2764Z" fill="#F8F3E3"/>
<path d="M128.397 38.5777C128.397 39.1534 128.353 39.7274 128.353 40.6576C128.353 44.5913 128.971 49.543 134.183 49.543C139.395 49.543 140.544 45.9654 140.989 44.5474L141.651 44.6775C141.252 45.9605 140.058 50.1593 134.139 50.1593C128.22 50.1593 123.938 46.1833 123.938 40.1714C123.938 34.9546 128.308 30.0078 133.874 30.0078C137.142 30.0078 142 32.1218 142 38.5777H128.397ZM137.498 37.9614C137.571 37.213 137.601 36.461 137.588 35.7092C137.588 31.7299 135.998 30.6241 133.7 30.6241C129.723 30.6241 128.709 34.1155 128.446 37.9614H137.498Z" fill="#F8F3E3"/>
<path d="M119.309 0C115.7 6.53882 104.908 5.18585 98.4432 9.9619C90.6715 15.7039 92.1959 26.061 92.43 25.5325C94.9685 19.6555 98.162 15.9153 101.359 13.8241C103.135 12.6646 104.959 11.8808 106.789 11.1214C105.701 10.0985 104.414 9.23988 102.919 8.84472C102.919 8.84472 105.594 8.91628 107.877 10.666C110.73 9.47568 113.598 8.19426 116.353 5.51596C116.353 5.51596 114.39 9.16671 108.794 11.4938C109.992 12.7719 110.928 14.6469 111.035 17.4602C111.035 17.4602 109.873 14.4826 107.622 11.9816C104.534 13.1963 101.71 14.7217 98.149 18.2082C93.2734 22.9664 91.3817 29.5784 90.925 32.8291C90.9208 32.8694 90.9277 32.91 90.9449 32.9467C90.9621 32.9834 90.9889 33.0147 91.0225 33.0372C91.055 33.0584 91.6239 33.3868 91.6726 33.4145C91.7734 33.473 91.892 33.4145 91.8855 33.3478C91.7697 32.1948 91.9022 31.0304 92.2739 29.9329C92.56 29.0612 93.9999 26.4236 97.1284 25.6186C100.993 24.6267 105.984 23.7339 110.293 20.8052C115.178 17.4878 118.825 12.2678 119.626 5.48507C119.86 3.48 119.717 1.03587 119.309 0Z" fill="#7F9948"/>
<path d="M10.704 75.36C10.656 75.536 10.56 75.792 10.416 76.128C10.288 76.448 10.072 76.776 9.768 77.112C9.48 77.432 9.08 77.72 8.568 77.976C8.072 78.216 7.424 78.336 6.624 78.336C6.016 78.336 5.384 78.24 4.728 78.048C4.072 77.856 3.472 77.552 2.928 77.136C2.384 76.704 1.936 76.144 1.584 75.456C1.248 74.768 1.08 73.92 1.08 72.912C1.08 72.128 1.224 71.4 1.512 70.728C1.816 70.056 2.216 69.472 2.712 68.976C3.224 68.48 3.816 68.096 4.488 67.824C5.176 67.536 5.904 67.392 6.672 67.392C7.104 67.392 7.544 67.448 7.992 67.56C8.456 67.656 8.872 67.816 9.24 68.04C9.624 68.248 9.936 68.528 10.176 68.88C10.432 69.216 10.56 69.632 10.56 70.128C10.56 70.464 10.448 70.744 10.224 70.968C10.016 71.176 9.712 71.28 9.312 71.28C9.04 71.28 8.776 71.224 8.52 71.112C8.28 70.984 8.16 70.776 8.16 70.488C8.16 70.264 8.216 69.992 8.328 69.672C8.44 69.352 8.496 69.088 8.496 68.88C8.496 68.512 8.312 68.232 7.944 68.04C7.576 67.832 7.152 67.728 6.672 67.728C6.32 67.728 5.952 67.776 5.568 67.872C5.2 67.952 4.856 68.168 4.536 68.52C4.232 68.872 3.976 69.4 3.768 70.104C3.576 70.808 3.48 71.768 3.48 72.984C3.48 73.672 3.52 74.32 3.6 74.928C3.696 75.536 3.856 76.072 4.08 76.536C4.32 76.984 4.64 77.344 5.04 77.616C5.456 77.872 5.992 78 6.648 78C7.352 78 7.928 77.896 8.376 77.688C8.84 77.48 9.2 77.232 9.456 76.944C9.728 76.64 9.928 76.336 10.056 76.032C10.184 75.728 10.28 75.48 10.344 75.288L10.704 75.36ZM15.0347 72.864C15.0347 74 15.1227 74.904 15.2987 75.576C15.4747 76.248 15.7067 76.768 15.9947 77.136C16.2827 77.488 16.6187 77.72 17.0027 77.832C17.3867 77.944 17.7947 78 18.2267 78C18.6587 78 19.0667 77.944 19.4507 77.832C19.8347 77.72 20.1707 77.488 20.4587 77.136C20.7467 76.768 20.9787 76.248 21.1547 75.576C21.3307 74.904 21.4187 74 21.4187 72.864C21.4187 71.904 21.3547 71.104 21.2267 70.464C21.0987 69.808 20.8987 69.28 20.6267 68.88C20.3707 68.464 20.0427 68.168 19.6427 67.992C19.2427 67.816 18.7707 67.728 18.2267 67.728C17.6827 67.728 17.2107 67.816 16.8107 67.992C16.4107 68.168 16.0747 68.464 15.8027 68.88C15.5467 69.28 15.3547 69.808 15.2267 70.464C15.0987 71.104 15.0347 71.904 15.0347 72.864ZM12.6347 72.864C12.6347 72.08 12.8027 71.352 13.1387 70.68C13.4907 70.008 13.9307 69.432 14.4587 68.952C15.0027 68.456 15.6027 68.072 16.2587 67.8C16.9307 67.528 17.5867 67.392 18.2267 67.392C18.8667 67.392 19.5147 67.528 20.1707 67.8C20.8427 68.072 21.4427 68.456 21.9707 68.952C22.5147 69.432 22.9547 70.008 23.2907 70.68C23.6427 71.352 23.8187 72.08 23.8187 72.864C23.8187 73.616 23.6587 74.328 23.3387 75C23.0187 75.656 22.5947 76.232 22.0667 76.728C21.5547 77.224 20.9627 77.616 20.2907 77.904C19.6187 78.192 18.9307 78.336 18.2267 78.336C17.5227 78.336 16.8347 78.192 16.1627 77.904C15.4907 77.616 14.8907 77.224 14.3627 76.728C13.8507 76.232 13.4347 75.656 13.1147 75C12.7947 74.328 12.6347 73.616 12.6347 72.864ZM25.5626 77.664H27.4106V61.032H25.5626V60.696H29.4746V77.664H31.3226V78H25.5626V77.664ZM32.6642 77.664H34.5122V61.032H32.6642V60.696H36.5762V77.664H38.4242V78H32.6642V77.664ZM47.5418 71.712C47.5738 71.488 47.5898 71.28 47.5898 71.088C47.5898 70.896 47.5898 70.696 47.5898 70.488C47.5898 69.944 47.5338 69.496 47.4218 69.144C47.3258 68.792 47.1818 68.512 46.9898 68.304C46.8138 68.096 46.5898 67.952 46.3178 67.872C46.0618 67.776 45.7818 67.728 45.4778 67.728C44.9338 67.728 44.4858 67.84 44.1338 68.064C43.7818 68.272 43.5018 68.56 43.2938 68.928C43.0858 69.296 42.9258 69.72 42.8138 70.2C42.7178 70.68 42.6538 71.184 42.6217 71.712H47.5418ZM42.5978 72.048C42.5978 72.208 42.5898 72.376 42.5738 72.552C42.5738 72.712 42.5738 72.92 42.5738 73.176C42.5738 73.704 42.6058 74.256 42.6698 74.832C42.7338 75.408 42.8698 75.928 43.0778 76.392C43.3018 76.856 43.6218 77.24 44.0378 77.544C44.4698 77.848 45.0378 78 45.7418 78C46.4458 78 47.0218 77.896 47.4698 77.688C47.9338 77.48 48.2938 77.232 48.5498 76.944C48.8218 76.64 49.0218 76.336 49.1498 76.032C49.2778 75.728 49.3738 75.48 49.4378 75.288L49.7978 75.36C49.7498 75.536 49.6538 75.792 49.5098 76.128C49.3818 76.448 49.1658 76.776 48.8618 77.112C48.5738 77.432 48.1738 77.72 47.6618 77.976C47.1658 78.216 46.5178 78.336 45.7178 78.336C44.9178 78.336 44.1738 78.208 43.4858 77.952C42.8138 77.696 42.2298 77.328 41.7338 76.848C41.2378 76.368 40.8538 75.8 40.5818 75.144C40.3098 74.472 40.1738 73.728 40.1738 72.912C40.1738 72.208 40.3098 71.528 40.5818 70.872C40.8698 70.2 41.2538 69.608 41.7338 69.096C42.2298 68.584 42.8058 68.176 43.4618 67.872C44.1178 67.552 44.8218 67.392 45.5738 67.392C46.0218 67.392 46.5018 67.472 47.0138 67.632C47.5258 67.792 47.9978 68.056 48.4298 68.424C48.8778 68.776 49.2458 69.248 49.5338 69.84C49.8378 70.432 49.9898 71.168 49.9898 72.048H42.5978ZM55.7498 78.72C55.5418 78.848 55.3258 78.976 55.1018 79.104C54.8938 79.248 54.7018 79.424 54.5258 79.632C54.3658 79.84 54.2298 80.08 54.1178 80.352C54.0218 80.64 53.9738 80.992 53.9738 81.408C53.9738 81.984 54.0698 82.456 54.2617 82.824C54.4698 83.208 54.7258 83.512 55.0298 83.736C55.3498 83.976 55.7018 84.144 56.0858 84.24C56.4698 84.336 56.8458 84.384 57.2138 84.384C57.7898 84.384 58.3098 84.296 58.7738 84.12C59.2538 83.944 59.6618 83.704 59.9978 83.4C60.3498 83.112 60.6138 82.776 60.7898 82.392C60.9818 82.008 61.0778 81.608 61.0778 81.192C61.0778 80.296 60.8298 79.656 60.3338 79.272C59.8538 78.904 59.1898 78.72 58.3418 78.72H55.7498ZM59.6378 70.92C59.6378 70.552 59.6138 70.184 59.5658 69.816C59.5178 69.432 59.4138 69.088 59.2538 68.784C59.1098 68.464 58.8778 68.208 58.5578 68.016C58.2538 67.824 57.8378 67.728 57.3098 67.728C56.4938 67.728 55.8778 67.976 55.4618 68.472C55.0458 68.968 54.8378 69.784 54.8378 70.92C54.8378 71.4 54.8698 71.832 54.9338 72.216C55.0138 72.6 55.1498 72.936 55.3418 73.224C55.5338 73.496 55.7898 73.704 56.1098 73.848C56.4298 73.992 56.8378 74.064 57.3338 74.064C58.1658 74.064 58.7578 73.808 59.1098 73.296C59.4618 72.768 59.6378 71.976 59.6378 70.92ZM52.1498 76.44C52.1498 76.008 52.2298 75.64 52.3898 75.336C52.5498 75.016 52.7418 74.744 52.9658 74.52C53.2058 74.28 53.4538 74.088 53.7098 73.944C53.9818 73.8 54.2218 73.68 54.4298 73.584C53.5018 72.944 53.0378 72.08 53.0378 70.992C53.0378 70.432 53.1738 69.928 53.4458 69.48C53.7178 69.032 54.0618 68.656 54.4778 68.352C54.8938 68.032 55.3498 67.792 55.8458 67.632C56.3578 67.472 56.8458 67.392 57.3098 67.392C58.0298 67.392 58.6458 67.536 59.1578 67.824C59.6858 68.112 60.0698 68.376 60.3098 68.616C60.4858 68.312 60.7418 68.032 61.0778 67.776C61.4298 67.52 61.8618 67.392 62.3738 67.392C62.6938 67.392 62.9898 67.464 63.2618 67.608C63.5338 67.736 63.6698 68.024 63.6698 68.472C63.6698 68.76 63.5738 68.976 63.3818 69.12C63.2058 69.264 63.0218 69.336 62.8298 69.336C62.6058 69.336 62.4458 69.272 62.3498 69.144C62.2538 69.016 62.1658 68.88 62.0858 68.736C62.0218 68.592 61.9498 68.456 61.8698 68.328C61.7898 68.2 61.6698 68.136 61.5098 68.136C61.3498 68.136 61.1818 68.208 61.0058 68.352C60.8458 68.48 60.7018 68.632 60.5738 68.808C60.7178 68.968 60.9018 69.24 61.1258 69.624C61.3498 70.008 61.4618 70.488 61.4618 71.064C61.4618 71.544 61.3418 71.984 61.1018 72.384C60.8618 72.784 60.5418 73.136 60.1418 73.44C59.7578 73.744 59.3018 73.984 58.7738 74.16C58.2618 74.32 57.7338 74.4 57.1898 74.4C56.6298 74.4 56.1418 74.328 55.7258 74.184C55.3098 74.024 54.9898 73.888 54.7658 73.776C54.5898 73.856 54.3978 73.944 54.1898 74.04C53.9978 74.136 53.8138 74.256 53.6378 74.4C53.4778 74.544 53.3418 74.72 53.2298 74.928C53.1178 75.12 53.0618 75.344 53.0618 75.6C53.0618 75.84 53.1098 76.04 53.2058 76.2C53.3018 76.36 53.4218 76.48 53.5658 76.56C53.7258 76.64 53.9018 76.696 54.0938 76.728C54.2858 76.76 54.4858 76.776 54.6938 76.776H58.4858C59.6058 76.776 60.4938 77.048 61.1498 77.592C61.8218 78.12 62.1578 78.96 62.1578 80.112C62.1578 80.816 62.0058 81.456 61.7018 82.032C61.3978 82.608 60.9898 83.104 60.4778 83.52C59.9818 83.952 59.4058 84.28 58.7498 84.504C58.0938 84.744 57.4218 84.864 56.7338 84.864C56.1098 84.864 55.5338 84.792 55.0058 84.648C54.4938 84.504 54.0458 84.304 53.6618 84.048C53.2778 83.808 52.9738 83.512 52.7498 83.16C52.5418 82.808 52.4378 82.416 52.4378 81.984C52.4378 81.568 52.5178 81.184 52.6777 80.832C52.8538 80.496 53.0698 80.192 53.3258 79.92C53.5978 79.664 53.9018 79.44 54.2378 79.248C54.5738 79.056 54.9098 78.896 55.2458 78.768V78.72C54.1898 78.72 53.4058 78.544 52.8938 78.192C52.3978 77.856 52.1498 77.272 52.1498 76.44ZM71.9871 71.712C72.0191 71.488 72.0351 71.28 72.0351 71.088C72.0351 70.896 72.0351 70.696 72.0351 70.488C72.0351 69.944 71.9791 69.496 71.8671 69.144C71.7711 68.792 71.6271 68.512 71.4351 68.304C71.2591 68.096 71.0351 67.952 70.7631 67.872C70.5071 67.776 70.2271 67.728 69.9231 67.728C69.3791 67.728 68.9311 67.84 68.5791 68.064C68.2271 68.272 67.9471 68.56 67.7391 68.928C67.5311 69.296 67.3711 69.72 67.2591 70.2C67.1631 70.68 67.0991 71.184 67.0671 71.712H71.9871ZM67.0431 72.048C67.0431 72.208 67.0351 72.376 67.0191 72.552C67.0191 72.712 67.0191 72.92 67.0191 73.176C67.0191 73.704 67.0511 74.256 67.1151 74.832C67.1791 75.408 67.3151 75.928 67.5231 76.392C67.7471 76.856 68.0671 77.24 68.4831 77.544C68.9151 77.848 69.4831 78 70.1871 78C70.8911 78 71.4671 77.896 71.9151 77.688C72.3791 77.48 72.7391 77.232 72.9951 76.944C73.2671 76.64 73.4671 76.336 73.5951 76.032C73.7231 75.728 73.8191 75.48 73.8831 75.288L74.2431 75.36C74.1951 75.536 74.0991 75.792 73.9551 76.128C73.8271 76.448 73.6111 76.776 73.3071 77.112C73.0191 77.432 72.6191 77.72 72.1071 77.976C71.6111 78.216 70.9631 78.336 70.1631 78.336C69.3631 78.336 68.6191 78.208 67.9311 77.952C67.2591 77.696 66.6751 77.328 66.1791 76.848C65.6831 76.368 65.2991 75.8 65.0271 75.144C64.7551 74.472 64.6191 73.728 64.6191 72.912C64.6191 72.208 64.7551 71.528 65.0271 70.872C65.3151 70.2 65.6991 69.608 66.1791 69.096C66.6751 68.584 67.2511 68.176 67.9071 67.872C68.5631 67.552 69.2671 67.392 70.0191 67.392C70.4671 67.392 70.9471 67.472 71.4591 67.632C71.9711 67.792 72.4431 68.056 72.8751 68.424C73.3231 68.776 73.6911 69.248 73.9791 69.84C74.2831 70.432 74.4351 71.168 74.4351 72.048H67.0431Z" fill="#F8F3E3"/>
</svg>
