<svg width="142" height="51" viewBox="0 0 142 51" fill="none" xmlns="http://www.w3.org/2000/svg">
<path d="M8.028 19.02C7.992 19.152 7.92 19.344 7.812 19.596C7.716 19.836 7.554 20.082 7.326 20.334C7.11 20.574 6.81 20.79 6.426 20.982C6.054 21.162 5.568 21.252 4.968 21.252C4.512 21.252 4.038 21.18 3.546 21.036C3.054 20.892 2.604 20.664 2.196 20.352C1.788 20.028 1.452 19.608 1.188 19.092C0.936 18.576 0.81 17.94 0.81 17.184C0.81 16.596 0.918 16.05 1.134 15.546C1.362 15.042 1.662 14.604 2.034 14.232C2.418 13.86 2.862 13.572 3.366 13.368C3.882 13.152 4.428 13.044 5.004 13.044C5.328 13.044 5.658 13.086 5.994 13.17C6.342 13.242 6.654 13.362 6.93 13.53C7.218 13.686 7.452 13.896 7.632 14.16C7.824 14.412 7.92 14.724 7.92 15.096C7.92 15.348 7.836 15.558 7.668 15.726C7.512 15.882 7.284 15.96 6.984 15.96C6.78 15.96 6.582 15.918 6.39 15.834C6.21 15.738 6.12 15.582 6.12 15.366C6.12 15.198 6.162 14.994 6.246 14.754C6.33 14.514 6.372 14.316 6.372 14.16C6.372 13.884 6.234 13.674 5.958 13.53C5.682 13.374 5.364 13.296 5.004 13.296C4.74 13.296 4.464 13.332 4.176 13.404C3.9 13.464 3.642 13.626 3.402 13.89C3.174 14.154 2.982 14.55 2.826 15.078C2.682 15.606 2.61 16.326 2.61 17.238C2.61 17.754 2.64 18.24 2.7 18.696C2.772 19.152 2.892 19.554 3.06 19.902C3.24 20.238 3.48 20.508 3.78 20.712C4.092 20.904 4.494 21 4.986 21C5.514 21 5.946 20.922 6.282 20.766C6.63 20.61 6.9 20.424 7.092 20.208C7.296 19.98 7.446 19.752 7.542 19.524C7.638 19.296 7.71 19.11 7.758 18.966L8.028 19.02ZM12.176 17.148C12.176 18 12.242 18.678 12.374 19.182C12.506 19.686 12.68 20.076 12.896 20.352C13.112 20.616 13.364 20.79 13.652 20.874C13.94 20.958 14.246 21 14.57 21C14.894 21 15.2 20.958 15.488 20.874C15.776 20.79 16.028 20.616 16.244 20.352C16.46 20.076 16.634 19.686 16.766 19.182C16.898 18.678 16.964 18 16.964 17.148C16.964 16.428 16.916 15.828 16.82 15.348C16.724 14.856 16.574 14.46 16.37 14.16C16.178 13.848 15.932 13.626 15.632 13.494C15.332 13.362 14.978 13.296 14.57 13.296C14.162 13.296 13.808 13.362 13.508 13.494C13.208 13.626 12.956 13.848 12.752 14.16C12.56 14.46 12.416 14.856 12.32 15.348C12.224 15.828 12.176 16.428 12.176 17.148ZM10.376 17.148C10.376 16.56 10.502 16.014 10.754 15.51C11.018 15.006 11.348 14.574 11.744 14.214C12.152 13.842 12.602 13.554 13.094 13.35C13.598 13.146 14.09 13.044 14.57 13.044C15.05 13.044 15.536 13.146 16.028 13.35C16.532 13.554 16.982 13.842 17.378 14.214C17.786 14.574 18.116 15.006 18.368 15.51C18.632 16.014 18.764 16.56 18.764 17.148C18.764 17.712 18.644 18.246 18.404 18.75C18.164 19.242 17.846 19.674 17.45 20.046C17.066 20.418 16.622 20.712 16.118 20.928C15.614 21.144 15.098 21.252 14.57 21.252C14.042 21.252 13.526 21.144 13.022 20.928C12.518 20.712 12.068 20.418 11.672 20.046C11.288 19.674 10.976 19.242 10.736 18.75C10.496 18.246 10.376 17.712 10.376 17.148ZM20.972 20.748H22.358V8.274H20.972V8.022H23.906V20.748H25.292V21H20.972V20.748ZM27.1981 20.748H28.5841V8.274H27.1981V8.022H30.1321V20.748H31.5181V21H27.1981V20.748ZM39.2563 16.284C39.2803 16.116 39.2923 15.96 39.2923 15.816C39.2923 15.672 39.2923 15.522 39.2923 15.366C39.2923 14.958 39.2503 14.622 39.1663 14.358C39.0943 14.094 38.9863 13.884 38.8423 13.728C38.7103 13.572 38.5423 13.464 38.3383 13.404C38.1463 13.332 37.9363 13.296 37.7083 13.296C37.3003 13.296 36.9643 13.38 36.7003 13.548C36.4363 13.704 36.2263 13.92 36.0703 14.196C35.9143 14.472 35.7943 14.79 35.7103 15.15C35.6383 15.51 35.5903 15.888 35.5663 16.284H39.2563ZM35.5483 16.536C35.5483 16.656 35.5423 16.782 35.5303 16.914C35.5303 17.034 35.5303 17.19 35.5303 17.382C35.5303 17.778 35.5543 18.192 35.6023 18.624C35.6503 19.056 35.7523 19.446 35.9083 19.794C36.0763 20.142 36.3163 20.43 36.6283 20.658C36.9523 20.886 37.3783 21 37.9063 21C38.4343 21 38.8663 20.922 39.2023 20.766C39.5503 20.61 39.8203 20.424 40.0123 20.208C40.2163 19.98 40.3663 19.752 40.4623 19.524C40.5583 19.296 40.6303 19.11 40.6783 18.966L40.9483 19.02C40.9123 19.152 40.8403 19.344 40.7323 19.596C40.6363 19.836 40.4743 20.082 40.2463 20.334C40.0303 20.574 39.7303 20.79 39.3463 20.982C38.9743 21.162 38.4883 21.252 37.8883 21.252C37.2883 21.252 36.7303 21.156 36.2143 20.964C35.7103 20.772 35.2723 20.496 34.9003 20.136C34.5283 19.776 34.2403 19.35 34.0363 18.858C33.8323 18.354 33.7303 17.796 33.7303 17.184C33.7303 16.656 33.8323 16.146 34.0363 15.654C34.2523 15.15 34.5403 14.706 34.9003 14.322C35.2723 13.938 35.7043 13.632 36.1963 13.404C36.6883 13.164 37.2163 13.044 37.7803 13.044C38.1163 13.044 38.4763 13.104 38.8603 13.224C39.2443 13.344 39.5983 13.542 39.9223 13.818C40.2583 14.082 40.5343 14.436 40.7503 14.88C40.9783 15.324 41.0923 15.876 41.0923 16.536H35.5483ZM46.3123 21.54C46.1563 21.636 45.9943 21.732 45.8263 21.828C45.6703 21.936 45.5263 22.068 45.3943 22.224C45.2743 22.38 45.1723 22.56 45.0883 22.764C45.0163 22.98 44.9803 23.244 44.9803 23.556C44.9803 23.988 45.0523 24.342 45.1963 24.618C45.3523 24.906 45.5443 25.134 45.7723 25.302C46.0123 25.482 46.2763 25.608 46.5643 25.68C46.8523 25.752 47.1343 25.788 47.4103 25.788C47.8423 25.788 48.2323 25.722 48.5803 25.59C48.9403 25.458 49.2463 25.278 49.4983 25.05C49.7623 24.834 49.9603 24.582 50.0923 24.294C50.2363 24.006 50.3083 23.706 50.3083 23.394C50.3083 22.722 50.1223 22.242 49.7503 21.954C49.3903 21.678 48.8923 21.54 48.2563 21.54H46.3123ZM49.2283 15.69C49.2283 15.414 49.2103 15.138 49.1743 14.862C49.1383 14.574 49.0603 14.316 48.9403 14.088C48.8323 13.848 48.6583 13.656 48.4183 13.512C48.1903 13.368 47.8783 13.296 47.4823 13.296C46.8703 13.296 46.4083 13.482 46.0963 13.854C45.7843 14.226 45.6283 14.838 45.6283 15.69C45.6283 16.05 45.6523 16.374 45.7003 16.662C45.7603 16.95 45.8623 17.202 46.0063 17.418C46.1503 17.622 46.3423 17.778 46.5823 17.886C46.8223 17.994 47.1283 18.048 47.5003 18.048C48.1243 18.048 48.5683 17.856 48.8323 17.472C49.0963 17.076 49.2283 16.482 49.2283 15.69ZM43.6123 19.83C43.6123 19.506 43.6723 19.23 43.7923 19.002C43.9123 18.762 44.0563 18.558 44.2243 18.39C44.4043 18.21 44.5903 18.066 44.7823 17.958C44.9863 17.85 45.1663 17.76 45.3223 17.688C44.6263 17.208 44.2783 16.56 44.2783 15.744C44.2783 15.324 44.3803 14.946 44.5843 14.61C44.7883 14.274 45.0463 13.992 45.3583 13.764C45.6703 13.524 46.0123 13.344 46.3843 13.224C46.7683 13.104 47.1343 13.044 47.4823 13.044C48.0223 13.044 48.4843 13.152 48.8683 13.368C49.2643 13.584 49.5523 13.782 49.7323 13.962C49.8643 13.734 50.0563 13.524 50.3083 13.332C50.5723 13.14 50.8963 13.044 51.2803 13.044C51.5203 13.044 51.7423 13.098 51.9463 13.206C52.1503 13.302 52.2523 13.518 52.2523 13.854C52.2523 14.07 52.1803 14.232 52.0363 14.34C51.9043 14.448 51.7663 14.502 51.6223 14.502C51.4543 14.502 51.3343 14.454 51.2623 14.358C51.1903 14.262 51.1243 14.16 51.0643 14.052C51.0163 13.944 50.9623 13.842 50.9023 13.746C50.8423 13.65 50.7523 13.602 50.6323 13.602C50.5123 13.602 50.3863 13.656 50.2543 13.764C50.1343 13.86 50.0263 13.974 49.9303 14.106C50.0383 14.226 50.1763 14.43 50.3443 14.718C50.5123 15.006 50.5963 15.366 50.5963 15.798C50.5963 16.158 50.5063 16.488 50.3263 16.788C50.1463 17.088 49.9063 17.352 49.6063 17.58C49.3183 17.808 48.9763 17.988 48.5803 18.12C48.1963 18.24 47.8003 18.3 47.3923 18.3C46.9723 18.3 46.6063 18.246 46.2943 18.138C45.9823 18.018 45.7423 17.916 45.5743 17.832C45.4423 17.892 45.2983 17.958 45.1423 18.03C44.9983 18.102 44.8603 18.192 44.7283 18.3C44.6083 18.408 44.5063 18.54 44.4223 18.696C44.3383 18.84 44.2963 19.008 44.2963 19.2C44.2963 19.38 44.3323 19.53 44.4043 19.65C44.4763 19.77 44.5663 19.86 44.6743 19.92C44.7943 19.98 44.9263 20.022 45.0703 20.046C45.2143 20.07 45.3643 20.082 45.5203 20.082H48.3643C49.2043 20.082 49.8703 20.286 50.3623 20.694C50.8663 21.09 51.1183 21.72 51.1183 22.584C51.1183 23.112 51.0043 23.592 50.7763 24.024C50.5483 24.456 50.2423 24.828 49.8583 25.14C49.4863 25.464 49.0543 25.71 48.5623 25.878C48.0703 26.058 47.5663 26.148 47.0503 26.148C46.5823 26.148 46.1503 26.094 45.7543 25.986C45.3703 25.878 45.0343 25.728 44.7463 25.536C44.4583 25.356 44.2303 25.134 44.0623 24.87C43.9063 24.606 43.8283 24.312 43.8283 23.988C43.8283 23.676 43.8883 23.388 44.0083 23.124C44.1403 22.872 44.3023 22.644 44.4943 22.44C44.6983 22.248 44.9263 22.08 45.1783 21.936C45.4303 21.792 45.6823 21.672 45.9343 21.576V21.54C45.1423 21.54 44.5543 21.408 44.1703 21.144C43.7983 20.892 43.6123 20.454 43.6123 19.83ZM59.3903 16.284C59.4143 16.116 59.4263 15.96 59.4263 15.816C59.4263 15.672 59.4263 15.522 59.4263 15.366C59.4263 14.958 59.3843 14.622 59.3003 14.358C59.2283 14.094 59.1203 13.884 58.9763 13.728C58.8443 13.572 58.6763 13.464 58.4723 13.404C58.2803 13.332 58.0703 13.296 57.8423 13.296C57.4343 13.296 57.0983 13.38 56.8343 13.548C56.5703 13.704 56.3603 13.92 56.2043 14.196C56.0483 14.472 55.9283 14.79 55.8443 15.15C55.7723 15.51 55.7243 15.888 55.7003 16.284H59.3903ZM55.6823 16.536C55.6823 16.656 55.6763 16.782 55.6643 16.914C55.6643 17.034 55.6643 17.19 55.6643 17.382C55.6643 17.778 55.6883 18.192 55.7363 18.624C55.7843 19.056 55.8863 19.446 56.0423 19.794C56.2103 20.142 56.4503 20.43 56.7623 20.658C57.0863 20.886 57.5123 21 58.0403 21C58.5683 21 59.0003 20.922 59.3363 20.766C59.6843 20.61 59.9543 20.424 60.1463 20.208C60.3503 19.98 60.5003 19.752 60.5963 19.524C60.6923 19.296 60.7643 19.11 60.8123 18.966L61.0823 19.02C61.0463 19.152 60.9743 19.344 60.8663 19.596C60.7703 19.836 60.6083 20.082 60.3803 20.334C60.1643 20.574 59.8643 20.79 59.4803 20.982C59.1083 21.162 58.6223 21.252 58.0223 21.252C57.4223 21.252 56.8643 21.156 56.3483 20.964C55.8443 20.772 55.4063 20.496 55.0343 20.136C54.6623 19.776 54.3743 19.35 54.1703 18.858C53.9663 18.354 53.8643 17.796 53.8643 17.184C53.8643 16.656 53.9663 16.146 54.1703 15.654C54.3863 15.15 54.6743 14.706 55.0343 14.322C55.4063 13.938 55.8383 13.632 56.3303 13.404C56.8223 13.164 57.3503 13.044 57.9143 13.044C58.2503 13.044 58.6103 13.104 58.9943 13.224C59.3783 13.344 59.7323 13.542 60.0563 13.818C60.3923 14.082 60.6683 14.436 60.8843 14.88C61.1123 15.324 61.2263 15.876 61.2263 16.536H55.6823Z" fill="#3A4520"/>
<path d="M0 48.917H3.40154V31.1917H0V30.5722H7.11187V35.3011H7.20125C7.90659 33.7529 9.71868 30.0859 14.7974 30.0859C18.6865 30.0859 21.3779 31.8975 21.3779 36.0052V48.917H24.7794V49.5365H14.1799V48.917H17.5798V34.6392C17.5798 32.3431 16.5201 30.7055 14.2237 30.7055C10.4256 30.7055 7.20125 34.244 7.20125 38.9258V48.917H10.6012V49.5365H0V48.917Z" fill="#3A4520"/>
<path d="M28.8015 38.5777C28.8015 39.1534 28.7576 39.7274 28.7576 40.6576C28.7576 44.5913 29.3752 49.543 34.5872 49.543C39.7992 49.543 40.9482 45.9654 41.3903 44.5474L42.0517 44.6775C41.6552 45.9605 40.4623 50.1593 34.5401 50.1593C28.6179 50.1593 24.3403 46.1833 24.3403 40.1714C24.3403 34.9546 28.7121 30.0078 34.28 30.0078C37.5467 30.0078 42.406 32.1218 42.406 38.5777H28.8015ZM37.9026 37.9614C37.9739 37.2129 38.0032 36.461 37.9904 35.7092C37.9904 31.7299 36.4009 30.6241 34.1045 30.6241C30.126 30.6241 29.1103 34.1155 28.8486 37.9614H37.9026Z" fill="#3A4520"/>
<path d="M41.6099 30.5801H52.2565V31.1996H48.5901L53.5372 44.9879L58.13 34.0715L57.0249 31.1996H55.1705V30.5801H63.9628V31.1996H61.0033L66.126 44.9001L71.6516 31.1996H67.4944V30.5801H74.6956V31.1996H72.3554L64.4471 50.9999L58.4339 34.9545L51.7202 50.9999L44.6149 31.1996H41.6099V30.5801Z" fill="#3A4520"/>
<path d="M72.5195 48.9168H77.4244V18.6896H72.5195V18.0732H86.7449V18.6896H81.84V48.9168H89.7011C94.8693 48.9168 97.6987 45.4254 99.0249 39.8541H99.5125V49.5363H72.5195V48.9168Z" fill="#3A4520"/>
<path d="M123.937 17.2764C121.376 17.2764 118.946 18.9562 117.399 20.8978C116.25 22.3614 115.408 24.1274 115.408 28.2351V30.58H112.01V31.1996H115.408V48.9167H108.565V30.58H101.362V31.1996H104.763V48.9167H101.362V49.5363H123.229V48.9167H119.21V31.1915H124.688V30.5719H119.21V24.4364C119.21 19.927 121.241 17.8959 123.673 17.8959C124.776 17.8959 126.11 18.2049 126.11 19.5319C126.11 20.545 125.268 21.2101 125.268 22.2281C125.268 23.4217 126.549 23.6396 127.303 23.6396C128.847 23.6396 129.416 22.4915 129.416 21.3873C129.414 19.7953 127.781 17.2764 123.937 17.2764Z" fill="#3A4520"/>
<path d="M128.397 38.5777C128.397 39.1534 128.353 39.7274 128.353 40.6576C128.353 44.5913 128.971 49.543 134.183 49.543C139.395 49.543 140.544 45.9654 140.989 44.5474L141.651 44.6775C141.252 45.9605 140.058 50.1593 134.139 50.1593C128.22 50.1593 123.938 46.1833 123.938 40.1714C123.938 34.9546 128.308 30.0078 133.874 30.0078C137.142 30.0078 142 32.1218 142 38.5777H128.397ZM137.498 37.9614C137.571 37.213 137.601 36.461 137.588 35.7092C137.588 31.7299 135.998 30.6241 133.7 30.6241C129.723 30.6241 128.709 34.1155 128.446 37.9614H137.498Z" fill="#3A4520"/>
<path d="M119.309 0C115.7 6.53882 104.908 5.18585 98.4432 9.9619C90.6715 15.7039 92.1959 26.061 92.43 25.5325C94.9685 19.6555 98.162 15.9153 101.359 13.8241C103.135 12.6646 104.959 11.8808 106.789 11.1214C105.701 10.0985 104.414 9.23988 102.919 8.84472C102.919 8.84472 105.594 8.91628 107.877 10.666C110.73 9.47568 113.598 8.19426 116.353 5.51596C116.353 5.51596 114.39 9.16671 108.794 11.4938C109.992 12.7719 110.928 14.6469 111.035 17.4602C111.035 17.4602 109.873 14.4826 107.622 11.9816C104.534 13.1963 101.71 14.7217 98.149 18.2082C93.2734 22.9664 91.3817 29.5784 90.925 32.8291C90.9208 32.8694 90.9277 32.91 90.9449 32.9467C90.9621 32.9834 90.9889 33.0147 91.0225 33.0372C91.055 33.0584 91.6239 33.3868 91.6726 33.4145C91.7734 33.473 91.892 33.4145 91.8855 33.3478C91.7697 32.1948 91.9022 31.0304 92.2739 29.9329C92.56 29.0612 93.9999 26.4236 97.1284 25.6186C100.993 24.6267 105.984 23.7339 110.293 20.8052C115.178 17.4878 118.825 12.2678 119.626 5.48506C119.86 3.48 119.717 1.03587 119.309 0Z" fill="#7F9948"/>
</svg>
