<svg width="16" height="22" viewBox="0 0 16 22" fill="none" xmlns="http://www.w3.org/2000/svg">
<path d="M2.49459 0.22807C2.06827 -0.123022 1.43805 -0.0620326 1.08696 0.364293C0.735865 0.790618 0.796854 1.42084 1.22318 1.77193L2.49459 0.22807ZM14.0017 11L14.6375 11.7719L15.5748 11L14.6375 10.2281L14.0017 11ZM1.22318 20.2281C0.796854 20.5792 0.735865 21.2094 1.08696 21.6357C1.43805 22.062 2.06827 22.123 2.49459 21.7719L1.22318 20.2281ZM1.22318 1.77193L13.366 11.7719L14.6375 10.2281L2.49459 0.22807L1.22318 1.77193ZM13.366 10.2281L1.22318 20.2281L2.49459 21.7719L14.6375 11.7719L13.366 10.2281Z" fill="black"/>
</svg>
