<svg width="291" height="220" viewBox="0 0 291 220" fill="none" xmlns="http://www.w3.org/2000/svg">
<path d="M67.4778 184.379C65.7547 184.382 64.1027 185.219 62.8842 186.708C61.6658 188.196 60.9804 190.215 60.9785 192.32V210.896C60.9804 213.002 61.6658 215.02 62.8842 216.509C64.1027 217.997 65.7547 218.834 67.4778 218.837H75.7216C77.4447 218.834 79.0967 217.997 80.3152 216.509C81.5336 215.02 82.219 213.002 82.2209 210.896V192.32C82.219 190.215 81.5336 188.196 80.3152 186.708C79.0967 185.219 77.4447 184.382 75.7216 184.379H67.4778Z" fill="#3F3D56"/>
<path d="M219.866 219.456H211.622C209.765 219.454 207.984 218.551 206.671 216.947C205.358 215.343 204.619 213.167 204.617 210.898V192.322C204.619 190.053 205.358 187.877 206.671 186.273C207.984 184.668 209.765 183.766 211.622 183.763H219.866C221.723 183.766 223.504 184.668 224.817 186.273C226.13 187.877 226.869 190.053 226.871 192.322V210.898C226.869 213.167 226.13 215.343 224.817 216.947C223.504 218.551 221.723 219.454 219.866 219.456V219.456Z" fill="#3F3D56"/>
<path d="M214.397 204.583H72.4429C65.9824 204.583 60.7266 199.93 60.7266 194.211V160.862L67.7725 151.796H220.438L226.114 160.881V194.211C226.114 199.93 220.858 204.583 214.397 204.583Z" fill="#ECECEC"/>
<path d="M219.594 161.244H68.3997L66.8633 132.461L67.841 129.515L73.5242 112.429H213.446L221.13 131.832L219.594 161.244Z" fill="#ECECEC"/>
<path d="M221.055 139.127L219.927 160.753H186.662V144.688L220.109 136.742L221.055 139.127Z" fill="#FFD37B"/>
<path d="M101.188 144.691V160.756H68.4237L67.3008 139.747L68.2569 136.868L101.188 144.691Z" fill="#FFD37B"/>
<path d="M212.783 124.607H74.5469L89.2908 64.5642C89.8921 62.0845 91.1305 59.9069 92.8229 58.3532C94.5153 56.7995 96.5719 55.9522 98.6888 55.9365L190.238 54.8712C192.45 54.845 194.606 55.7239 196.361 57.3679C198.117 59.012 199.372 61.3266 199.926 63.943L212.783 124.607Z" fill="#ECECEC"/>
<path d="M202.142 118.929L85.1664 117.235C85.0185 117.232 84.8731 117.188 84.7419 117.105C84.6106 117.021 84.4972 116.902 84.4108 116.755C84.3243 116.608 84.2672 116.439 84.2441 116.261C84.2209 116.082 84.2324 115.899 84.2775 115.727L95.4915 72.983C95.5526 72.75 95.6727 72.5468 95.8345 72.4026C95.9962 72.2584 96.1913 72.1807 96.3916 72.1807H190.477C190.677 72.1807 190.872 72.2583 191.034 72.4024C191.196 72.5465 191.316 72.7496 191.377 72.9825L203.053 117.422C203.099 117.596 203.11 117.781 203.086 117.962C203.061 118.142 203.002 118.313 202.913 118.46C202.824 118.608 202.708 118.727 202.574 118.808C202.44 118.89 202.292 118.931 202.142 118.929V118.929Z" fill="#202020"/>
<path d="M159.43 62.1975H127.9C127.635 62.1975 127.394 61.878 127.271 61.3632C127.15 60.8363 127.167 60.2758 127.322 59.7618L129.922 51.729C130.054 51.3196 130.271 51.0752 130.5 51.0752H156.83C157.059 51.0752 157.276 51.3196 157.408 51.729L160.008 59.7618C160.163 60.2758 160.18 60.8363 160.059 61.3632C159.936 61.878 159.695 62.1975 159.43 62.1975Z" fill="#F09C78"/>
<path d="M74.635 123.37H53.8984V117.802C53.9001 116.002 54.4862 114.276 55.528 113.003C56.5699 111.73 57.9826 111.014 59.456 111.012H74.635V123.37Z" fill="#9AC5F7"/>
<path d="M233.448 123.37H212.711V111.012H227.89C229.363 111.014 230.776 111.73 231.818 113.003C232.86 114.276 233.446 116.002 233.448 117.802V123.37Z" fill="#9AC5F7"/>
</svg>
